<?xml version="1.0" encoding="UTF-8" standalone="no"?>
<!DOCTYPE svg PUBLIC "-//W3C//DTD SVG 1.1//EN" "http://www.w3.org/Graphics/SVG/1.1/DTD/svg11.dtd">
<svg width="100%" height="100%" viewBox="0 0 790 283" version="1.1" xmlns="http://www.w3.org/2000/svg"
     xml:space="preserve" style="fill-rule:evenodd;clip-rule:evenodd;stroke-linejoin:round;stroke-miterlimit:2;">
    <g transform="matrix(1,0,0,1,-95.7549,-52.9453)">
        <g transform="matrix(0.860701,0,0,0.860701,-18.5857,27.0506)">
            <g transform="matrix(0.845073,0,0,0.845073,82.8227,30.0856)">
                <g>
                    <path d="M194.188,68.884C200.888,68.884 206.317,63.454 206.317,56.758L206.317,12.128C206.317,5.428 200.888,0 194.188,0C187.488,0 182.06,5.428 182.06,12.128L182.06,56.758C182.06,63.454 187.488,68.884 194.188,68.884Z" style="fill-rule:nonzero;"/>
                    <path d="M323.444,267.919L288.792,267.919L235.555,114.191C242.617,105.228 246.852,93.931 246.852,81.657C246.852,61.361 235.308,43.711 218.448,34.924L218.448,60.042C218.448,62.025 218.203,63.953 217.75,65.802C220.81,70.333 222.599,75.791 222.599,81.657C222.599,97.32 209.855,110.064 194.192,110.064C178.531,110.064 165.787,97.32 165.787,81.657C165.787,75.79 167.576,70.333 170.635,65.801C170.182,63.953 169.936,62.025 169.936,60.042L169.936,34.922C153.076,43.711 141.53,61.36 141.53,81.656C141.53,93.93 145.764,105.227 152.829,114.191L99.589,267.919L64.937,267.919C61.77,267.919 59.194,270.496 59.194,273.664L59.194,283.238C59.194,286.406 61.77,288.984 64.937,288.984L92.292,288.984L79.053,327.208C78.448,328.958 79.375,330.867 81.123,331.473L82.482,331.945L65.558,380.799C64.954,382.549 65.88,384.457 67.629,385.066L76.679,388.199C78.288,388.758 80.062,388.016 80.797,386.475L103.375,339.18L108.266,340.873C110.013,341.478 111.924,340.553 112.53,338.805L129.786,288.986L182.8,288.986L182.8,291.956C182.8,298.236 187.909,303.348 194.192,303.348C200.475,303.348 205.585,298.238 205.585,291.956L205.585,288.986L258.6,288.986L275.856,338.805C276.46,340.553 278.372,341.48 280.12,340.873L285.013,339.18L307.591,386.475C308.324,388.016 310.1,388.756 311.707,388.199L320.759,385.066C322.508,384.461 323.434,382.551 322.828,380.799L305.904,331.945L307.263,331.473C309.011,330.869 309.939,328.959 309.331,327.208L296.093,288.984L323.447,288.984C326.614,288.984 329.191,286.406 329.191,283.238L329.191,273.664C329.188,270.496 326.611,267.919 323.444,267.919ZM205.58,267.919L205.58,264.947C205.58,258.666 200.473,253.553 194.188,253.553C187.903,253.553 182.796,258.664 182.796,264.947L182.796,267.919L137.076,267.919L183.709,133.268C187.096,133.956 190.6,134.318 194.187,134.318C197.776,134.318 201.279,133.956 204.666,133.268L251.301,267.919L205.58,267.919Z" style="fill-rule:nonzero;"/>
                </g>
            </g>
        </g>
        <g transform="matrix(0.860701,0,0,0.860701,-18.5857,27.0506)">
            <g transform="matrix(15.6772,0,0,15.6772,-5881.63,-3981.6)">
                <text x="398.637px" y="272.131px" style="font-family:'ArialRoundedMTBold', 'Arial Rounded MT Bold', sans-serif;font-size:12px;">PITECT</text>
            </g>
        </g>
    </g>
</svg>
