<?xml version="1.0" encoding="UTF-8" standalone="no"?>
<!DOCTYPE svg PUBLIC "-//W3C//DTD SVG 1.1//EN" "http://www.w3.org/Graphics/SVG/1.1/DTD/svg11.dtd">
<svg width="24" height="24" viewBox="0 0 24 24" version="1.1" xmlns="http://www.w3.org/2000/svg" xmlns:xlink="http://www.w3.org/1999/xlink" xml:space="preserve" xmlns:serif="http://www.serif.com/" style="fill-rule:evenodd;clip-rule:evenodd;stroke-linecap:round;stroke-linejoin:round;">
    <g transform="matrix(0.750478,0,0,0.750478,5.48948,6.91292)">
        <path d="M4,6L20,6C21.105,6 22,6.895 22,8L22,16C22,17.105 21.105,18 20,18L4,18C2.895,18 2,17.105 2,16L2,8C2,6.895 2.895,6 4,6Z" style="fill:rgb(235,235,235);fill-rule:nonzero;stroke:black;stroke-width:1.5px;"/>
        <path d="M5,8.5L6.5,8.5M8,8.5L6.5,8.5M6.5,8.5L6.5,15.5M6.5,15.5L5,15.5M6.5,15.5L8,15.5" style="fill:rgb(235,235,235);fill-rule:nonzero;stroke:black;stroke-width:1.5px;"/>
    </g>
    <g transform="matrix(0.707107,0.707107,-0.707107,0.707107,2.49582,-7.03852)">
        <path d="M6.929,8.043L6.929,10.458L3.212,6.742L6.929,3.025L6.929,5.441L13.907,5.441L13.907,8.043L6.929,8.043Z"/>
    </g>
</svg>
