<?xml version="1.0" encoding="UTF-8" standalone="no"?>
<!DOCTYPE svg PUBLIC "-//W3C//DTD SVG 1.1//EN" "http://www.w3.org/Graphics/SVG/1.1/DTD/svg11.dtd">
<svg width="24" height="24" viewBox="0 0 502 502" version="1.1" xmlns="http://www.w3.org/2000/svg" xmlns:xlink="http://www.w3.org/1999/xlink" xml:space="preserve" xmlns:serif="http://www.serif.com/" style="fill-rule:evenodd;clip-rule:evenodd;stroke-linejoin:round;stroke-miterlimit:2;">
    <g transform="matrix(0.869623,0,0,0.869623,71.4123,65.4495)">
        <path d="M461.63,251.914L446.592,217.707C445.702,215.681 444.713,213.672 443.654,211.739C437.382,200.27 427.089,191.636 414.673,187.426C402.296,183.23 388.879,183.79 376.889,189.004L371.094,191.524L363.689,174.679C363.688,174.677 363.687,174.674 363.686,174.672L358.23,162.262C353.568,151.658 345.042,143.522 334.223,139.355C323.457,135.209 311.745,135.51 301.236,140.201L282.008,148.531C278.451,143.471 274.131,139.61 269.094,137.003C258.573,131.558 245.916,132.016 231.473,138.366L217.714,144.414L199.904,103.9C192.654,87.407 179.198,76.09 162.988,72.85C147.749,69.804 132.233,74.115 121.478,84.38C105.339,99.782 100.702,122.908 109.656,143.275L177.122,297.71C171.473,296.567 165.52,296.044 159.479,296.191C143.788,296.578 129.679,301.568 120.232,309.981C119.612,310.383 119.029,310.859 118.495,311.409C109.001,321.186 104.321,333.013 104.958,345.61C105.755,361.353 114.748,376.878 130.964,390.508C131.046,390.577 131.129,390.645 131.214,390.711L269.895,499.858C271.689,501.271 273.874,502 276.081,502C277.443,502 278.813,501.722 280.104,501.154L478.776,413.817C482.201,412.312 484.499,409.02 484.732,405.286L485.813,387.974C488.713,341.548 480.351,294.499 461.63,251.914Z" style="fill:white;stroke:rgb(211,22,22);stroke-width:1.15px;"/>
    </g>
    <g transform="matrix(0.869623,0,0,0.869623,71.4123,65.4495)">
        <path d="M461.63,251.914L446.592,217.707C445.702,215.681 444.713,213.672 443.654,211.739C437.382,200.27 427.089,191.636 414.673,187.426C402.296,183.23 388.879,183.79 376.889,189.004L371.094,191.524L363.689,174.679C363.688,174.677 363.687,174.674 363.686,174.672L358.23,162.262C353.568,151.658 345.042,143.522 334.223,139.355C323.457,135.209 311.745,135.51 301.236,140.201L282.008,148.531C278.451,143.471 274.131,139.61 269.094,137.003C258.573,131.558 245.916,132.016 231.473,138.366L217.714,144.414L199.904,103.9C192.654,87.407 179.198,76.09 162.988,72.85C147.749,69.804 132.233,74.115 121.478,84.38C105.339,99.782 100.702,122.908 109.656,143.275L177.122,297.71C171.473,296.567 165.52,296.044 159.479,296.191C143.788,296.578 129.679,301.568 120.232,309.981C119.612,310.383 119.029,310.859 118.495,311.409C109.001,321.186 104.321,333.013 104.958,345.61C105.755,361.353 114.748,376.878 130.964,390.508C131.046,390.577 131.129,390.645 131.214,390.711L269.895,499.858C271.689,501.271 273.874,502 276.081,502C277.443,502 278.813,501.722 280.104,501.154L478.776,413.817C482.201,412.312 484.499,409.02 484.732,405.286L485.813,387.974C488.713,341.548 480.351,294.499 461.63,251.914ZM465.853,386.728L465.151,397.959L277.55,480.431L143.715,375.097C132.103,365.301 125.435,354.474 124.935,344.599C124.611,338.197 126.805,332.235 131.461,326.851C131.797,326.584 132.119,326.293 132.425,325.978C144.396,313.649 174.249,312.797 189.839,324.23L224.286,357.314C226.225,359.176 228.72,360.102 231.212,360.102C233.839,360.102 236.462,359.073 238.426,357.029C242.252,353.046 242.124,346.715 238.141,342.889L204.625,310.698L127.977,135.246C121.26,119.966 127.35,106.425 135.29,98.848C141.243,93.166 150.356,90.719 159.072,92.462C168.942,94.435 176.942,101.355 181.599,111.948L239.659,244.02C241.306,247.767 244.972,249.998 248.819,249.998C250.163,249.998 251.529,249.726 252.838,249.15C257.894,246.927 260.191,241.027 257.968,235.971L225.767,162.722L239.527,156.673C248.163,152.878 255.02,152.235 259.906,154.764C263.364,156.554 266.279,160.102 268.569,165.31L302.809,243.198C304.456,246.945 308.122,249.176 311.969,249.176C313.313,249.176 314.679,248.904 315.988,248.328C321.044,246.105 323.341,240.205 321.118,235.149L290.924,166.464L309.244,158.527C309.283,158.51 309.321,158.494 309.359,158.476C314.984,155.955 321.263,155.791 327.04,158.016C332.849,160.253 337.425,164.618 339.926,170.308L380.613,262.873C382.26,266.62 385.926,268.851 389.773,268.851C391.117,268.851 392.483,268.579 393.792,268.003C398.848,265.781 401.145,259.88 398.922,254.824L379.143,209.832L384.865,207.344C400.332,200.617 418.065,206.631 426.109,221.338C426.892,222.769 427.623,224.254 428.282,225.754L443.321,259.962C460.762,299.638 468.554,343.473 465.853,386.728Z" style="fill-rule:nonzero;"/>
    </g>
    <g transform="matrix(23.4394,0,0,21.2582,-115.197,-31.8873)">
        <path d="M5,2C5,1.726 5.226,1.5 5.5,1.5C6.362,1.5 7.073,1.787 7.56,2.066C7.734,2.165 7.881,2.264 8,2.352C8.119,2.264 8.266,2.165 8.44,2.066C9.066,1.701 9.776,1.506 10.5,1.5C10.774,1.5 11,1.726 11,2C11,2.274 10.774,2.5 10.5,2.5C9.862,2.5 9.323,2.713 8.936,2.934C8.783,3.021 8.638,3.119 8.5,3.228L8.5,7.5L9,7.5C9.274,7.5 9.5,7.726 9.5,8C9.5,8.274 9.274,8.5 9,8.5L8.5,8.5L8.5,12.772C8.6,12.852 8.748,12.959 8.936,13.066C9.323,13.287 9.862,13.5 10.5,13.5C10.774,13.5 11,13.726 11,14C11,14.274 10.774,14.5 10.5,14.5C9.776,14.494 9.066,14.299 8.44,13.934C8.288,13.848 8.141,13.753 8,13.65C7.859,13.753 7.712,13.849 7.56,13.935C6.934,14.3 6.224,14.495 5.5,14.501C5.226,14.501 5,14.275 5,14.001C5,13.727 5.226,13.501 5.5,13.501C6.138,13.501 6.677,13.288 7.064,13.067C7.252,12.96 7.399,12.853 7.5,12.773L7.5,8.5L7,8.5C6.726,8.5 6.5,8.274 6.5,8C6.5,7.726 6.726,7.5 7,7.5L7.5,7.5L7.5,3.228C7.362,3.119 7.217,3.021 7.064,2.934C6.589,2.656 6.05,2.506 5.5,2.5C5.226,2.5 5,2.274 5,2Z" style="fill-rule:nonzero;"/>
    </g>
</svg>
