<?xml version="1.0" encoding="UTF-8" standalone="no"?><!DOCTYPE svg PUBLIC "-//W3C//DTD SVG 1.1//EN"
        "http://www.w3.org/Graphics/SVG/1.1/DTD/svg11.dtd">
<svg width="100%" height="100%" viewBox="0 0 853 725" version="1.1" xmlns="http://www.w3.org/2000/svg"
     xmlns:xlink="http://www.w3.org/1999/xlink" xml:space="preserve"
     style="fill-rule:evenodd;clip-rule:evenodd;stroke-linejoin:round;stroke-miterlimit:2;"><path d="M210.291,352.553c-21.518,0 -40.966,-5.462 -58.345,-16.386c-17.38,-10.924 -31.118,-25.738 -41.214,-44.441c-10.097,-18.704 -15.145,-39.642 -15.145,-62.815c-0,-23.503 5.048,-44.607 15.145,-63.31c10.096,-18.704 23.834,-33.6 41.214,-44.69c17.379,-11.09 36.827,-16.635 58.345,-16.635c18.207,0 34.345,3.89 48.414,11.669c14.069,7.78 25.241,18.456 33.517,32.028c8.276,13.573 12.414,28.966 12.414,46.18l-0,68.524c-0,17.214 -4.055,32.607 -12.166,46.18c-8.11,13.572 -19.282,24.248 -33.517,32.027c-14.235,7.78 -30.455,11.669 -48.662,11.669Zm8.938,-51.641c20.193,-0 36.496,-6.786 48.91,-20.359c12.414,-13.572 18.621,-30.952 18.621,-52.138c-0,-14.235 -2.814,-26.814 -8.441,-37.738c-5.628,-10.924 -13.49,-19.449 -23.587,-25.573c-10.096,-6.124 -21.931,-9.186 -35.503,-9.186c-13.242,-0 -24.911,3.062 -35.007,9.186c-10.097,6.124 -18.042,14.649 -23.835,25.573c-5.793,10.924 -8.69,23.503 -8.69,37.738c0,14.234 2.897,26.814 8.69,37.738c5.793,10.924 13.738,19.448 23.835,25.573c10.096,6.124 21.765,9.186 35.007,9.186Zm64.055,46.676l0,-64.056l9.435,-58.096l-9.435,-57.601l0,-58.593l54.621,-0l0,238.346l-54.621,-0Z" style="fill:#f20d0d;fill-rule:nonzero;"/>
    <path d="M526.099,352.553c-18.207,0 -34.428,-3.889 -48.662,-11.669c-14.235,-7.779 -25.407,-18.455 -33.518,-32.027c-8.11,-13.573 -12.165,-28.966 -12.165,-46.18l-0,-68.524c-0,-17.214 4.138,-32.607 12.414,-46.18c8.276,-13.572 19.531,-24.248 33.765,-32.028c14.235,-7.779 30.29,-11.669 48.166,-11.669c21.517,0 40.966,5.545 58.345,16.635c17.38,11.09 31.118,25.986 41.214,44.69c10.097,18.703 15.145,39.807 15.145,63.31c0,23.173 -5.048,44.111 -15.145,62.815c-10.096,18.703 -23.834,33.517 -41.214,44.441c-17.379,10.924 -36.828,16.386 -58.345,16.386Zm-8.938,-51.641c13.242,-0 24.911,-3.062 35.007,-9.186c10.097,-6.125 18.042,-14.649 23.835,-25.573c5.793,-10.924 8.689,-23.504 8.689,-37.738c0,-14.235 -2.896,-26.814 -8.689,-37.738c-5.793,-10.924 -13.738,-19.449 -23.835,-25.573c-10.096,-6.124 -21.765,-9.186 -35.007,-9.186c-13.241,-0 -24.993,3.062 -35.255,9.186c-10.262,6.124 -18.207,14.649 -23.835,25.573c-5.627,10.924 -8.441,23.503 -8.441,37.738c-0,14.234 2.814,26.814 8.441,37.738c5.628,10.924 13.573,19.448 23.835,25.573c10.262,6.124 22.014,9.186 35.255,9.186Zm-118.676,145.987l-0,-337.657l54.621,-0l-0,64.055l-9.435,58.097l9.435,57.6l-0,157.905l-54.621,-0Z"
          style="fill:#f20d0d;fill-rule:nonzero;"/>
    <path d="M686.983,347.588l-0,-238.346l54.621,-0l-0,238.346l-54.621,-0Zm27.31,-282.043c-9.269,0 -16.966,-3.145 -23.09,-9.434c-6.124,-6.29 -9.186,-14.069 -9.186,-23.338c0,-9.269 3.062,-17.049 9.186,-23.338c6.124,-6.29 13.821,-9.435 23.09,-9.435c9.6,-0 17.379,3.145 23.338,9.435c5.959,6.289 8.938,14.069 8.938,23.338c0,9.269 -2.979,17.048 -8.938,23.338c-5.959,6.289 -13.738,9.434 -23.338,9.434Z"
          style="fill:#f20d0d;fill-rule:nonzero;"/>
    <path d="M57.104,719.142l-0,-337.657l54.621,0l-0,337.657l-54.621,-0Zm-57.104,-188.691l0,-49.655l168.828,0l0,49.655l-168.828,0Z"
          style="fill-rule:nonzero;"/>
    <path d="M312.333,724.108c-23.835,-0 -45.27,-5.38 -64.304,-16.138c-19.035,-10.759 -34.097,-25.573 -45.187,-44.442c-11.089,-18.869 -16.634,-40.055 -16.634,-63.559c-0,-23.504 5.462,-44.607 16.386,-63.311c10.924,-18.703 25.738,-33.517 44.442,-44.441c18.703,-10.924 39.476,-16.387 62.317,-16.387c22.18,0 41.794,5.132 58.842,15.394c17.048,10.262 30.455,24.331 40.221,42.207c9.765,17.876 14.648,38.234 14.648,61.076c0,3.972 -0.248,8.028 -0.745,12.165c-0.496,4.138 -1.241,8.69 -2.234,13.656l-195.643,-0l0,-44.69l167.339,-0l-20.359,17.876c-0.662,-14.566 -3.475,-26.814 -8.441,-36.745c-4.965,-9.931 -12,-17.545 -21.103,-22.842c-9.104,-5.296 -20.276,-7.945 -33.518,-7.945c-13.903,0 -25.986,2.98 -36.248,8.938c-10.262,5.959 -18.207,14.318 -23.835,25.076c-5.628,10.759 -8.441,23.587 -8.441,38.483c-0,14.897 2.979,27.973 8.938,39.228c5.958,11.255 14.4,19.945 25.324,26.069c10.924,6.124 23.503,9.186 37.738,9.186c12.248,0 23.586,-2.151 34.014,-6.455c10.428,-4.303 19.283,-10.593 26.566,-18.869l34.758,35.256c-11.586,13.572 -25.655,23.834 -42.207,30.786c-16.552,6.952 -34.096,10.428 -52.634,10.428Z"
          style="fill-rule:nonzero;"/>
    <path d="M576.499,724.108c-23.503,-0 -44.772,-5.463 -63.807,-16.387c-19.034,-10.924 -34.014,-25.821 -44.938,-44.69c-10.924,-18.869 -16.386,-39.889 -16.386,-63.062c-0,-23.504 5.462,-44.607 16.386,-63.311c10.924,-18.703 25.904,-33.517 44.938,-44.441c19.035,-10.924 40.304,-16.387 63.807,-16.387c18.538,0 35.835,3.559 51.89,10.676c16.055,7.118 29.711,17.297 40.966,30.538l-35.752,36.249c-6.952,-8.276 -15.31,-14.483 -25.076,-18.621c-9.765,-4.138 -20.441,-6.207 -32.028,-6.207c-13.572,0 -25.572,3.062 -36,9.186c-10.427,6.125 -18.538,14.483 -24.331,25.076c-5.793,10.594 -8.69,23.007 -8.69,37.242c0,13.904 2.897,26.235 8.69,36.993c5.793,10.759 13.904,19.2 24.331,25.325c10.428,6.124 22.428,9.186 36,9.186c11.587,-0 22.263,-2.069 32.028,-6.207c9.766,-4.138 18.124,-10.345 25.076,-18.621l35.752,36.249c-11.255,13.241 -24.911,23.42 -40.966,30.538c-16.055,7.117 -33.352,10.676 -51.89,10.676Z"
          style="fill-rule:nonzero;"/>
    <path d="M740.859,719.142l-0,-337.657l54.621,0l-0,337.657l-54.621,-0Zm-57.104,-188.691l0,-49.655l168.828,0l0,49.655l-168.828,0Z"
          style="fill-rule:nonzero;"/></svg>