<?xml version="1.0" encoding="UTF-8" standalone="no"?>
<!-- Created with Inkscape (http://www.inkscape.org/) -->

<svg
   xmlns:dc="http://purl.org/dc/elements/1.1/"
   xmlns:cc="http://creativecommons.org/ns#"
   xmlns:rdf="http://www.w3.org/1999/02/22-rdf-syntax-ns#"
   xmlns:svg="http://www.w3.org/2000/svg"
   xmlns="http://www.w3.org/2000/svg"
   xmlns:sodipodi="http://sodipodi.sourceforge.net/DTD/sodipodi-0.dtd"
   xmlns:inkscape="http://www.inkscape.org/namespaces/inkscape"
   id="svg2"
   version="1.1"
   inkscape:version="0.91 r13725"
   xml:space="preserve"
   width="393.80212"
   height="810"
   viewBox="0 0 393.80213 810"
   sodipodi:docname="publicdomainq-passbook-bank-man.svg"
   inkscape:export-filename="/media/sdb1/_GRAFIKA/Publicdomainq/lidi/publicdomainq-passbook-bank-man.png"
   inkscape:export-xdpi="90.024696"
   inkscape:export-ydpi="90.024696"><title
     id="title7701">Bank officer - man - with passbook</title><metadata
     id="metadata8"><rdf:RDF><cc:Work
         rdf:about=""><dc:format>image/svg+xml</dc:format><dc:type
           rdf:resource="http://purl.org/dc/dcmitype/StillImage" /><dc:title>Bank officer - man - with passbook</dc:title><cc:license
           rdf:resource="http://creativecommons.org/publicdomain/zero/1.0/" /><dc:subject><rdf:Bag><rdf:li>man</rdf:li><rdf:li>male</rdf:li><rdf:li>passbook</rdf:li><rdf:li>work</rdf:li><rdf:li>bank</rdf:li><rdf:li>officer</rdf:li><rdf:li>money</rdf:li><rdf:li>account</rdf:li><rdf:li>tie</rdf:li><rdf:li>publicdomainq.net</rdf:li></rdf:Bag></dc:subject><dc:description>This image was adapted from a picture posted to publicdomainq.net. All of the images on these sites are in the public domain i.e. CC0. This site is only in Japanese but can be easily navigated with Google Translate.</dc:description></cc:Work><cc:License
         rdf:about="http://creativecommons.org/publicdomain/zero/1.0/"><cc:permits
           rdf:resource="http://creativecommons.org/ns#Reproduction" /><cc:permits
           rdf:resource="http://creativecommons.org/ns#Distribution" /><cc:permits
           rdf:resource="http://creativecommons.org/ns#DerivativeWorks" /></cc:License></rdf:RDF></metadata><defs
     id="defs6" /><sodipodi:namedview
     pagecolor="#ffffff"
     bordercolor="#666666"
     borderopacity="1"
     objecttolerance="10"
     gridtolerance="10"
     guidetolerance="10"
     inkscape:pageopacity="0"
     inkscape:pageshadow="2"
     inkscape:window-width="1920"
     inkscape:window-height="1125"
     id="namedview4"
     showgrid="false"
     inkscape:zoom="0.67812434"
     inkscape:cx="49.008256"
     inkscape:cy="509.63475"
     inkscape:window-x="0"
     inkscape:window-y="0"
     inkscape:window-maximized="1"
     inkscape:current-layer="svg2"
     fit-margin-top="5"
     fit-margin-left="5"
     fit-margin-bottom="5"
     fit-margin-right="5" /><g
     id="g12"
     transform="matrix(0.54507121,0,0,-0.54507121,4.9995763,804.95356)"><path
       d="m 484.188,565.297 c 51.105,-13.496 115.492,-34.824 160.355,-64.926 22.984,-15.426 42.5,-37.5 43.75,-147.5 0.457,-40.07 -13.305,-129.332 -41.25,-181.25 -12.309,-22.851 -36.352,-31.5 -59.531,-22.441 L 563.301,9.12109 l -424.578,0 L 125.09,111.77 c 0,0 -5.57,-7.18 -10.957,-16.8286 C 90.7891,53.2813 35.7891,46.6211 17.4609,85.7813 -2.9375,129.398 11.6328,309.461 18.2891,366.621 c 11.8398,101.488 32.5,125 55.4922,140.434 39.0627,26.211 89.4337,44.375 132.6327,56.386 l 82.172,19.844 195.602,-17.988"
       style="fill:#ffffff;fill-opacity:1;fill-rule:nonzero;stroke:none"
       id="path14"
       inkscape:connector-curvature="0" /><path
       d="m 342.102,501.156 c 35.093,0.293 60.347,82.129 60.347,82.129 l -1.344,11.426 c -1.671,19.277 -0.917,37.574 -0.917,37.574 l -98.833,0 c 0,0 0.84,-19.019 -0.875,-38.277 l -1.347,-10.723 c 0,0 6.25,-54.707 42.969,-82.129"
       style="fill:#fcd0b4;fill-opacity:1;fill-rule:nonzero;stroke:none"
       id="path16"
       inkscape:connector-curvature="0" /><path
       d="m 309.539,618.496 -4.375,-35.625 -38.75,-8.125 c 0,0 7.348,-23.125 40.625,-28.75 44.379,-7.5 85.629,11.875 93.129,37.5 l -2.5,35.625 -88.129,-0.625"
       style="fill:#e59686;fill-opacity:1;fill-rule:nonzero;stroke:none"
       id="path18"
       inkscape:connector-curvature="0" /><path
       d="m 8.58203,132.07 c 1.56637,-20.23 4.35937,-36.6208 8.87887,-46.2887 18.3282,-39.1602 73.3282,-32.5 96.6721,9.1601 4.004,7.1486 7.644,8.6606 10.957,13.0896 -40.5392,-6.75 -91.7892,3.739 -116.50797,24.039"
       style="fill:#d5ddec;fill-opacity:1;fill-rule:nonzero;stroke:none"
       id="path20"
       inkscape:connector-curvature="0" /><path
       d="m 252.422,99.1211 c -43.262,0 -85.332,2.5199 -125.82,7.1089 l 14.472,-97.10891 421.531,0 21.458,143.82791 C 490.77,119.121 376.277,99.1211 252.422,99.1211"
       style="fill:#d5ddec;fill-opacity:1;fill-rule:nonzero;stroke:none"
       id="path22"
       inkscape:connector-curvature="0" /><path
       d="m 564.188,165.172 23.324,-15.992 c 23.179,-9.059 47.222,-0.41 59.531,22.441 3.77,7 8.348,17.391 11.602,25.551 -20.879,-16.813 -62.981,-30.293 -94.457,-32"
       style="fill:#d5ddec;fill-opacity:1;fill-rule:nonzero;stroke:none"
       id="path24"
       inkscape:connector-curvature="0" /><path
       d="m 37.4805,950.41 c 0,0 -63.5469,289.09 63.8085,379.93 0,0 24.375,42.8 114.149,93.57 115.292,65.23 274.843,38.46 299.32,-40.76 0,0 70.972,-11.06 116.094,-75.7 43.086,-61.75 58.613,-180.49 37.285,-355.204 L 651.047,923.547 54.6992,917.309 37.4805,950.41"
       style="fill:#483127;fill-opacity:1;fill-rule:nonzero;stroke:none"
       id="path26"
       inkscape:connector-curvature="0" /><path
       d="m 113.965,1289.13 c 0,0 24.375,42.8 114.133,93.58 115.308,65.22 274.89,38.42 299.336,-40.78 0,0 70.972,-11.07 116.089,-75.71 10.024,-14.36 18.54,-29.58 25.481,-46.65 -7.805,35.43 -20.711,62.9 -38.152,87.88 -45.122,64.64 -116.094,75.7 -116.094,75.7 -24.477,79.22 -184.028,105.99 -299.32,40.76 -89.774,-50.77 -114.149,-93.57 -114.149,-93.57 C -26.0664,1239.5 37.4805,950.41 37.4805,950.41 l 6.7773,-13.035 C 32.0391,1004.77 12.918,1217.04 113.965,1289.13"
       style="fill:#a08477;fill-opacity:1;fill-rule:nonzero;stroke:none"
       id="path28"
       inkscape:connector-curvature="0" /><path
       d="m 37.4805,950.41 c 0,0 -58.8789,289.09 68.4645,379.93 0,0 19.719,42.8 109.493,93.57 115.292,65.23 274.843,38.46 299.32,-40.76 0,0 67.871,-11.06 112.969,-75.7 43.125,-61.75 61.738,-180.49 40.41,-355.204"
       style="fill:none;stroke:#231f20;stroke-width:14;stroke-linecap:round;stroke-linejoin:round;stroke-miterlimit:10;stroke-dasharray:none;stroke-opacity:1"
       id="path30"
       inkscape:connector-curvature="0" /><path
       d="m 305.52,627.285 c 0,0 2.109,-47.555 -7.153,-68.414"
       style="fill:none;stroke:#231f20;stroke-width:14;stroke-linecap:round;stroke-linejoin:round;stroke-miterlimit:10;stroke-dasharray:none;stroke-opacity:1"
       id="path32"
       inkscape:connector-curvature="0" /><path
       d="m 397.688,626.449 c 0,0 -1.797,-43.847 6.335,-67.304"
       style="fill:none;stroke:#231f20;stroke-width:14;stroke-linecap:round;stroke-linejoin:round;stroke-miterlimit:10;stroke-dasharray:none;stroke-opacity:1"
       id="path34"
       inkscape:connector-curvature="0" /><path
       d="M 125.09,111.77 140.422,9.12109"
       style="fill:none;stroke:#231f20;stroke-width:14;stroke-linecap:round;stroke-linejoin:round;stroke-miterlimit:10;stroke-dasharray:none;stroke-opacity:1"
       id="path36"
       inkscape:connector-curvature="0" /><path
       d="M 95.8086,417.699 114.578,284.32"
       style="fill:none;stroke:#231f20;stroke-width:12;stroke-linecap:round;stroke-linejoin:round;stroke-miterlimit:10;stroke-dasharray:none;stroke-opacity:1"
       id="path38"
       inkscape:connector-curvature="0" /><path
       d="M 584.629,150.102 564.188,9.12109"
       style="fill:none;stroke:#231f20;stroke-width:14;stroke-linecap:round;stroke-linejoin:round;stroke-miterlimit:10;stroke-dasharray:none;stroke-opacity:1"
       id="path40"
       inkscape:connector-curvature="0" /><path
       d="m 604.871,395.988 -12.266,-89.75"
       style="fill:none;stroke:#231f20;stroke-width:12;stroke-linecap:round;stroke-linejoin:round;stroke-miterlimit:10;stroke-dasharray:none;stroke-opacity:1"
       id="path42"
       inkscape:connector-curvature="0" /><path
       d="m 152.461,196.602 c 0,0 -10.813,-52.5 -38.328,-101.6606 C 90.7891,53.2813 35.7891,46.6211 17.4609,85.7813 -2.9375,129.398 11.6328,309.461 18.2891,366.621 c 11.8398,101.488 32.5,125 55.4922,140.434 85.5547,57.398 225.3517,76.23 225.3517,76.23"
       style="fill:none;stroke:#231f20;stroke-width:14;stroke-linecap:round;stroke-linejoin:round;stroke-miterlimit:10;stroke-dasharray:none;stroke-opacity:1"
       id="path44"
       inkscape:connector-curvature="0" /><path
       d="m 87.4609,264.941 c 0,0 -55.8281,-67.5 -78.32809,-105"
       style="fill:none;stroke:#231f20;stroke-width:14;stroke-linecap:round;stroke-linejoin:round;stroke-miterlimit:10;stroke-dasharray:none;stroke-opacity:1"
       id="path46"
       inkscape:connector-curvature="0" /><path
       d="m 402.449,583.285 c 0,0 156.535,-25.508 242.094,-82.914 22.984,-15.426 42.5,-37.5 43.75,-147.5 0.457,-40.07 -13.305,-129.332 -41.25,-181.25 -17.5,-32.5 -58.75,-36.25 -87.5,-1.25"
       style="fill:none;stroke:#231f20;stroke-width:14;stroke-linecap:round;stroke-linejoin:round;stroke-miterlimit:10;stroke-dasharray:none;stroke-opacity:1"
       id="path48"
       inkscape:connector-curvature="0" /><path
       d="m 402.449,583.285 c 0,0 156.535,-25.508 242.094,-82.914 22.984,-15.426 42.5,-37.5 43.75,-147.5 0.457,-40.07 -13.305,-129.332 -41.25,-181.25"
       style="fill:none;stroke:#231f20;stroke-width:14;stroke-linecap:round;stroke-linejoin:round;stroke-miterlimit:10;stroke-dasharray:none;stroke-opacity:1"
       id="path50"
       inkscape:connector-curvature="0" /><path
       d="m 522.566,409.199 c 30,-54.371 56.301,-93.551 87.5,-131.871"
       style="fill:none;stroke:#231f20;stroke-width:14;stroke-linecap:round;stroke-linejoin:round;stroke-miterlimit:10;stroke-dasharray:none;stroke-opacity:1"
       id="path52"
       inkscape:connector-curvature="0" /><path
       d="M 559.543,170.371 C 534.988,200.262 455.684,335.961 425.117,459.199"
       style="fill:none;stroke:#231f20;stroke-width:14;stroke-linecap:round;stroke-linejoin:round;stroke-miterlimit:10;stroke-dasharray:none;stroke-opacity:1"
       id="path54"
       inkscape:connector-curvature="0" /><path
       d="m 303.633,6 32.363,412.289 -35.398,72.348 50.957,9.816 48.203,-9.816 L 364.363,418.289 396.73,6"
       style="fill:#568ed2;fill-opacity:1;fill-rule:nonzero;stroke:none"
       id="path56"
       inkscape:connector-curvature="0" /><path
       d="m 303.633,6 32.363,412.289 -35.398,72.348 50.957,9.816 48.203,-9.816 L 364.363,418.289 396.73,6"
       style="fill:none;stroke:#231f20;stroke-width:12;stroke-linecap:round;stroke-linejoin:round;stroke-miterlimit:10;stroke-dasharray:none;stroke-opacity:1"
       id="path58"
       inkscape:connector-curvature="0" /><path
       d="m 335.996,418.289 c 0,0 11.133,11.512 28.367,0"
       style="fill:#ed1c24;fill-opacity:1;fill-rule:nonzero;stroke:none"
       id="path60"
       inkscape:connector-curvature="0" /><path
       d="m 335.996,418.289 c 0,0 11.133,11.512 28.367,0"
       style="fill:none;stroke:#231f20;stroke-width:10;stroke-linecap:round;stroke-linejoin:round;stroke-miterlimit:10;stroke-dasharray:none;stroke-opacity:1"
       id="path62"
       inkscape:connector-curvature="0" /><path
       d="m 613.645,959.094 c 0,0 57.378,46.016 78.933,-26.141 24.766,-82.89 -58.242,-173.242 -95.89,-180.312"
       style="fill:#fcd0b4;fill-opacity:1;fill-rule:nonzero;stroke:none"
       id="path64"
       inkscape:connector-curvature="0" /><path
       d="m 613.645,959.094 c 0,0 57.378,46.016 78.933,-26.141 24.766,-82.89 -58.242,-173.242 -95.89,-180.312"
       style="fill:none;stroke:#231f20;stroke-width:14;stroke-linecap:round;stroke-linejoin:round;stroke-miterlimit:10;stroke-dasharray:none;stroke-opacity:1"
       id="path66"
       inkscape:connector-curvature="0" /><path
       d="m 651.418,852.727 c -11.801,-26.836 -34.16,-42.957 -49.934,-36.024 -15.793,6.942 -19.035,34.324 -7.214,61.168 11.793,26.828 34.168,42.953 49.941,36.008 15.777,-6.934 18.992,-34.336 7.207,-61.152"
       style="fill:#e59686;fill-opacity:1;fill-rule:nonzero;stroke:none"
       id="path68"
       inkscape:connector-curvature="0" /><path
       d="m 667.703,934.055 c 0,0 -30.469,13.398 -54.058,-38.621"
       style="fill:none;stroke:#231f20;stroke-width:14;stroke-linecap:round;stroke-linejoin:round;stroke-miterlimit:10;stroke-dasharray:none;stroke-opacity:1"
       id="path70"
       inkscape:connector-curvature="0" /><path
       d="m 93.0547,959.094 c 0,0 -57.3711,46.016 -78.9219,-26.141 -24.7695,-82.89 58.2188,-173.242 95.8942,-180.312"
       style="fill:#fcd0b4;fill-opacity:1;fill-rule:nonzero;stroke:none"
       id="path72"
       inkscape:connector-curvature="0" /><path
       d="m 93.0547,959.094 c 0,0 -57.3711,46.016 -78.9219,-26.141 -24.7695,-82.89 58.2188,-173.242 95.8942,-180.312"
       style="fill:none;stroke:#231f20;stroke-width:14;stroke-linecap:round;stroke-linejoin:round;stroke-miterlimit:10;stroke-dasharray:none;stroke-opacity:1"
       id="path74"
       inkscape:connector-curvature="0" /><path
       d="m 45.7305,854.262 c 11.789,-26.809 34.164,-42.934 49.9336,-36.008 15.7889,6.953 19.0159,34.316 7.2069,61.172 -11.7851,26.828 -34.1601,42.949 -49.9296,35.984 -15.8008,-6.922 -19.0078,-34.293 -7.2109,-61.148"
       style="fill:#e59686;fill-opacity:1;fill-rule:nonzero;stroke:none"
       id="path76"
       inkscape:connector-curvature="0" /><path
       d="m 38.9727,934.055 c 0,0 30.4921,13.398 54.082,-38.621"
       style="fill:none;stroke:#231f20;stroke-width:14;stroke-linecap:round;stroke-linejoin:round;stroke-miterlimit:10;stroke-dasharray:none;stroke-opacity:1"
       id="path78"
       inkscape:connector-curvature="0" /><path
       d="M 583.645,1165.86 C 654.836,987.531 645.027,784.641 572.629,694.152 516.711,624.262 441.379,591.477 351.316,591.477 c -90.078,0 -165.386,32.785 -221.296,102.675 -75.9887,94.981 -82.313,322.148 0.769,499.678 l 1.582,1.87 c 70.703,45.74 178.567,48.75 178.567,48.75 0,0 -67.083,-30.38 -57.391,-40.32 10.027,-10.3 74.297,-15.42 133.484,0.39 85.418,22.82 106.746,55.44 106.746,55.44 0,0 5.442,-67.31 92.602,-95.21"
       style="fill:#fcd0b4;fill-opacity:1;fill-rule:nonzero;stroke:none"
       id="path80"
       inkscape:connector-curvature="0" /><path
       d="M 583.645,1165.86 C 654.836,987.531 645.027,784.641 572.629,694.152 516.711,624.262 441.379,591.477 351.316,591.477 c -90.078,0 -165.386,32.785 -221.296,102.675 -75.9887,94.981 -82.313,322.148 0.769,499.678 l 1.582,1.87 c 70.703,45.74 178.567,48.75 178.567,48.75 0,0 -67.083,-30.38 -57.391,-40.32 10.027,-10.3 74.297,-15.42 133.484,0.39 85.418,22.82 106.746,55.44 106.746,55.44 0,0 5.442,-67.31 92.602,-95.21"
       style="fill:none;stroke:#231f20;stroke-width:14;stroke-linecap:round;stroke-linejoin:round;stroke-miterlimit:10;stroke-dasharray:none;stroke-opacity:1"
       id="path82"
       inkscape:connector-curvature="0" /><path
       d="m 333.313,906.516 c 0,0 7.046,-26.817 2.339,-54.422"
       style="fill:none;stroke:#231f20;stroke-width:14;stroke-linecap:round;stroke-linejoin:round;stroke-miterlimit:10;stroke-dasharray:none;stroke-opacity:1"
       id="path84"
       inkscape:connector-curvature="0" /><path
       d="m 347.91,867.367 c 0,0 -28.476,-35.637 -29.199,-48.437 -0.715,-12.825 23.406,-34.192 23.406,-34.192"
       style="fill:none;stroke:#231f20;stroke-width:14;stroke-linecap:round;stroke-linejoin:round;stroke-miterlimit:10;stroke-dasharray:none;stroke-opacity:1"
       id="path86"
       inkscape:connector-curvature="0" /><path
       d="m 290.891,1151.06 c -2.336,2.58 -17.832,-8.18 -36.868,-18.13 -9.503,-4.97 -19.89,-9.68 -29.492,-12.93 -9.609,-3.31 -18.386,-5.12 -24.543,-6.03 -12.312,-1.99 -23.242,-2.22 -31.621,-2.03 -8.394,0.15 -14.156,0.49 -16.094,-2.22 -2.031,-2.68 1.758,-9.23 11.274,-14.3 9.351,-5.16 24.5,-8.12 40.203,-5.53 7.852,1.18 18.563,4.24 29.297,9.35 10.754,5.05 21.465,12.02 30.476,19.33 18.11,14.68 29.582,30.15 27.368,32.49"
       style="fill:#4d342a;fill-opacity:1;fill-rule:nonzero;stroke:none"
       id="path88"
       inkscape:connector-curvature="0" /><path
       d="m 290.891,1151.06 c -2.336,2.58 -17.832,-8.18 -36.868,-18.13 -9.503,-4.97 -19.89,-9.68 -29.492,-12.93 -9.609,-3.31 -18.386,-5.12 -24.543,-6.03 -12.312,-1.99 -23.242,-2.22 -31.621,-2.03 -8.394,0.15 -14.156,0.49 -16.094,-2.22 -2.031,-2.68 1.758,-9.23 11.274,-14.3 9.351,-5.16 24.5,-8.12 40.203,-5.53 7.852,1.18 18.563,4.24 29.297,9.35 10.754,5.05 21.465,12.02 30.476,19.33 18.11,14.68 29.582,30.15 27.368,32.49 z"
       style="fill:none;stroke:#231f20;stroke-width:10;stroke-linecap:butt;stroke-linejoin:miter;stroke-miterlimit:10;stroke-dasharray:none;stroke-opacity:1"
       id="path90"
       inkscape:connector-curvature="0" /><path
       d="m 424.504,1151.06 c 2.359,2.58 17.851,-8.18 36.883,-18.13 9.504,-4.97 19.89,-9.68 29.504,-12.93 9.605,-3.31 18.355,-5.12 24.507,-6.03 12.344,-1.99 23.247,-2.22 31.645,-2.03 8.379,0.15 14.141,0.49 16.109,-2.22 2.016,-2.68 -1.773,-9.23 -11.289,-14.3 -9.351,-5.16 -24.492,-8.12 -40.215,-5.53 -7.847,1.18 -18.574,4.24 -29.277,9.35 -10.777,5.05 -21.465,12.02 -30.484,19.33 -18.125,14.68 -29.574,30.15 -27.383,32.49"
       style="fill:#4d342a;fill-opacity:1;fill-rule:nonzero;stroke:none"
       id="path92"
       inkscape:connector-curvature="0" /><path
       d="m 424.504,1151.06 c 2.359,2.58 17.851,-8.18 36.883,-18.13 9.504,-4.97 19.89,-9.68 29.504,-12.93 9.605,-3.31 18.355,-5.12 24.507,-6.03 12.344,-1.99 23.247,-2.22 31.645,-2.03 8.379,0.15 14.141,0.49 16.109,-2.22 2.016,-2.68 -1.773,-9.23 -11.289,-14.3 -9.351,-5.16 -24.492,-8.12 -40.215,-5.53 -7.847,1.18 -18.574,4.24 -29.277,9.35 -10.777,5.05 -21.465,12.02 -30.484,19.33 -18.125,14.68 -29.574,30.15 -27.383,32.49 z"
       style="fill:none;stroke:#231f20;stroke-width:10;stroke-linecap:butt;stroke-linejoin:miter;stroke-miterlimit:10;stroke-dasharray:none;stroke-opacity:1"
       id="path94"
       inkscape:connector-curvature="0" /><path
       d="M 74.3047,964.406 110.027,940.688"
       style="fill:none;stroke:#231f20;stroke-width:12;stroke-linecap:round;stroke-linejoin:round;stroke-miterlimit:10;stroke-dasharray:none;stroke-opacity:1"
       id="path96"
       inkscape:connector-curvature="0" /><path
       d="M 630.352,964.406 591.063,940.688"
       style="fill:none;stroke:#231f20;stroke-width:12;stroke-linecap:round;stroke-linejoin:round;stroke-miterlimit:10;stroke-dasharray:none;stroke-opacity:1"
       id="path98"
       inkscape:connector-curvature="0" /><path
       d="m 190.879,878.535 c 0,-13.738 -21.965,-24.879 -49.031,-24.879 -27.09,0 -49.0628,11.141 -49.0628,24.879 0,13.735 21.9728,24.867 49.0628,24.867 27.066,0 49.031,-11.132 49.031,-24.867"
       style="fill:#f6807f;fill-opacity:1;fill-rule:nonzero;stroke:none"
       id="path100"
       inkscape:connector-curvature="0" /><path
       d="m 601.973,873.156 c 0,-13.742 -21.953,-24.883 -49.024,-24.883 -27.09,0 -49.062,11.141 -49.062,24.883 0,13.731 21.972,24.864 49.062,24.864 27.071,0 49.024,-11.133 49.024,-24.864"
       style="fill:#f6807f;fill-opacity:1;fill-rule:nonzero;stroke:none"
       id="path102"
       inkscape:connector-curvature="0" /><path
       d="m 273.074,952.668 c 0,-34.805 -22.215,-62.988 -49.617,-62.988 -27.434,0 -49.617,28.183 -49.617,62.988 0,34.805 22.183,62.992 49.617,62.992 27.402,0 49.617,-28.187 49.617,-62.992"
       style="fill:#ffffff;fill-opacity:1;fill-rule:nonzero;stroke:none"
       id="path104"
       inkscape:connector-curvature="0" /><path
       d="m 172.773,964.406 c 0,0 5.286,38.464 41.18,49.154 42.016,12.48 52.785,-29.935 52.785,-29.935 0,0 -21.875,16.27 -47.937,9.641 -24.59,-6.262 -46.028,-28.86 -46.028,-28.86"
       style="fill:#deedfa;fill-opacity:1;fill-rule:nonzero;stroke:none"
       id="path106"
       inkscape:connector-curvature="0" /><path
       d="m 266.738,983.625 c 0,0 -10.769,42.415 -52.785,29.935 -35.894,-10.69 -41.18,-49.154 -41.18,-49.154"
       style="fill:none;stroke:#231f20;stroke-width:14;stroke-linecap:round;stroke-linejoin:round;stroke-miterlimit:10;stroke-dasharray:none;stroke-opacity:1"
       id="path108"
       inkscape:connector-curvature="0" /><path
       d="m 429.563,952.668 c 0,-34.805 22.222,-62.988 49.625,-62.988 27.394,0 49.628,28.183 49.628,62.988 0,34.805 -22.234,62.992 -49.628,62.992 -27.403,0 -49.625,-28.187 -49.625,-62.992"
       style="fill:#ffffff;fill-opacity:1;fill-rule:nonzero;stroke:none"
       id="path110"
       inkscape:connector-curvature="0" /><path
       d="m 438.059,922.609 c 0,-19.871 12.3,-36.015 27.437,-36.015 15.188,0 27.524,16.144 27.524,36.015 0,19.895 -12.336,36.028 -27.524,36.028 -15.137,0 -27.437,-16.133 -27.437,-36.028"
       style="fill:#231f20;fill-opacity:1;fill-rule:nonzero;stroke:none"
       id="path112"
       inkscape:connector-curvature="0" /><path
       d="m 529.871,964.406 c 0,0 -5.269,38.464 -41.187,49.154 -42.036,12.48 -52.793,-29.935 -52.793,-29.935 0,0 21.875,16.27 47.925,9.641 24.59,-6.262 46.055,-28.86 46.055,-28.86"
       style="fill:#deedfa;fill-opacity:1;fill-rule:nonzero;stroke:none"
       id="path114"
       inkscape:connector-curvature="0" /><path
       d="m 435.891,983.625 c 0,0 10.757,42.415 52.793,29.935 35.918,-10.69 41.187,-49.154 41.187,-49.154"
       style="fill:none;stroke:#231f20;stroke-width:14;stroke-linecap:round;stroke-linejoin:round;stroke-miterlimit:10;stroke-dasharray:none;stroke-opacity:1"
       id="path116"
       inkscape:connector-curvature="0" /><path
       d="m 473.918,941.781 c 0,-4.679 3.758,-8.496 8.418,-8.496 4.629,0 8.379,3.817 8.379,8.496 0,4.688 -3.75,8.477 -8.379,8.477 -4.66,0 -8.418,-3.789 -8.418,-8.477"
       style="fill:#ffffff;fill-opacity:1;fill-rule:nonzero;stroke:none"
       id="path118"
       inkscape:connector-curvature="0" /><path
       d="m 208.391,922.609 c 0,-19.871 12.3,-36.015 27.437,-36.015 15.188,0 27.524,16.144 27.524,36.015 0,19.895 -12.336,36.028 -27.524,36.028 -15.137,0 -27.437,-16.133 -27.437,-36.028"
       style="fill:#231f20;fill-opacity:1;fill-rule:nonzero;stroke:none"
       id="path120"
       inkscape:connector-curvature="0" /><path
       d="m 244.246,941.781 c 0,-4.679 3.762,-8.496 8.418,-8.496 4.633,0 8.383,3.817 8.383,8.496 0,4.688 -3.75,8.477 -8.383,8.477 -4.656,0 -8.418,-3.789 -8.418,-8.477"
       style="fill:#ffffff;fill-opacity:1;fill-rule:nonzero;stroke:none"
       id="path122"
       inkscape:connector-curvature="0" /><path
       d="m 351.238,492.531 c -50.484,43.633 -58.953,80.246 -52.422,97.981 0,0 -15.679,-5.528 -26.343,-32.981 -23.34,-60 3.316,-106.66 11.66,-130 0,0 24.605,44.172 67.105,65"
       style="fill:#ffffff;fill-opacity:1;fill-rule:nonzero;stroke:none"
       id="path124"
       inkscape:connector-curvature="0" /><path
       d="m 351.238,492.531 c -50.484,43.633 -58.953,80.246 -52.422,97.981 0,0 -15.679,-5.528 -26.343,-32.981 -23.34,-60 3.316,-106.66 11.66,-130 0,0 24.605,44.172 67.105,65 z"
       style="fill:none;stroke:#231f20;stroke-width:14;stroke-linecap:round;stroke-linejoin:round;stroke-miterlimit:10;stroke-dasharray:none;stroke-opacity:1"
       id="path126"
       inkscape:connector-curvature="0" /><path
       d="m 351.238,492.531 c 50.492,43.633 58.957,80.246 52.422,97.981 0,0 15.688,-5.528 26.352,-32.981 23.34,-60 -3.324,-106.66 -11.66,-130 0,0 -24.614,44.172 -67.114,65"
       style="fill:#ffffff;fill-opacity:1;fill-rule:nonzero;stroke:none"
       id="path128"
       inkscape:connector-curvature="0" /><path
       d="m 351.238,492.531 c 50.492,43.633 58.957,80.246 52.422,97.981 0,0 15.688,-5.528 26.352,-32.981 23.34,-60 -3.324,-106.66 -11.66,-130 0,0 -24.614,44.172 -67.114,65 z"
       style="fill:none;stroke:#231f20;stroke-width:14;stroke-linecap:round;stroke-linejoin:round;stroke-miterlimit:10;stroke-dasharray:none;stroke-opacity:1"
       id="path130"
       inkscape:connector-curvature="0" /><path
       d="m 323.43,638.129 c 0,0 31.597,26.648 72.793,5.918"
       style="fill:none;stroke:#231f20;stroke-width:14;stroke-linecap:round;stroke-linejoin:round;stroke-miterlimit:10;stroke-dasharray:none;stroke-opacity:1"
       id="path132"
       inkscape:connector-curvature="0" /><path
       d="m 130.613,972.68 c 26.274,29.27 132.649,37.11 172.785,2.461 29.661,-25.618 24.915,-76.868 -20.168,-115.899 -39.96,-34.57 -115.078,-42.519 -151.851,4.082 -31.5431,39.949 -23.399,84.149 -0.766,109.356 z"
       style="fill:none;stroke:#231f20;stroke-width:12;stroke-linecap:round;stroke-linejoin:round;stroke-miterlimit:10;stroke-dasharray:none;stroke-opacity:1"
       id="path134"
       inkscape:connector-curvature="0" /><path
       d="m 569.563,972.68 c -26.27,29.27 -132.637,37.11 -172.786,2.461 -29.66,-25.618 -24.914,-76.868 20.164,-115.899 39.961,-34.57 115.09,-42.519 151.875,4.082 31.528,39.949 23.379,84.149 0.747,109.356 z"
       style="fill:none;stroke:#231f20;stroke-width:12;stroke-linecap:round;stroke-linejoin:round;stroke-miterlimit:10;stroke-dasharray:none;stroke-opacity:1"
       id="path136"
       inkscape:connector-curvature="0" /><path
       d="m 322.063,932.602 c 0,0 31.445,15.046 56.05,-5.481"
       style="fill:none;stroke:#231f20;stroke-width:12;stroke-linecap:round;stroke-linejoin:round;stroke-miterlimit:10;stroke-dasharray:none;stroke-opacity:1"
       id="path138"
       inkscape:connector-curvature="0" /><path
       d="m 557.969,349.359 c 0,0 -6.028,-54.281 -58.953,-92.031"
       style="fill:none;stroke:#231f20;stroke-width:12;stroke-linecap:round;stroke-linejoin:round;stroke-miterlimit:10;stroke-dasharray:none;stroke-opacity:1"
       id="path140"
       inkscape:connector-curvature="0" /><path
       d="m 526.934,401.359 c 0,0 -29.266,53.93 -31.739,62 -2.453,8.051 -30.254,120.137 -35.527,129.711 -5.273,9.559 -88.66,18.36 -100.613,17.051 -11.946,-1.293 -21.117,-11.75 -25.586,-20.176 -4.492,-8.437 -13.879,-40.879 -12.031,-52.675 1.843,-11.79 24.042,-45.821 31.929,-50.469 7.883,-4.649 45.918,0.605 45.918,0.605 0,0 7.485,-44.644 26.137,-61.277 13.738,-12.258 26.348,-13.109 26.348,-13.109 l 34.16,-63.661 c 0,0 30.371,15.512 41.004,52"
       style="fill:#fcd0b4;fill-opacity:1;fill-rule:nonzero;stroke:none"
       id="path142"
       inkscape:connector-curvature="0" /><path
       d="m 526.934,401.359 c 0,0 -29.266,53.93 -31.739,62 -2.453,8.051 -30.254,120.137 -35.527,129.711 -5.273,9.559 -88.66,18.36 -100.613,17.051 -11.946,-1.293 -21.117,-11.75 -25.586,-20.176 -4.492,-8.437 -13.879,-40.879 -12.031,-52.675 1.843,-11.79 24.042,-45.821 31.929,-50.469 7.883,-4.649 45.918,0.605 45.918,0.605 0,0 7.485,-44.644 26.137,-61.277 13.738,-12.258 26.348,-13.109 26.348,-13.109 l 34.16,-63.661 c 0,0 30.371,15.512 41.004,52 z"
       style="fill:none;stroke:#231f20;stroke-width:14;stroke-linecap:round;stroke-linejoin:round;stroke-miterlimit:10;stroke-dasharray:none;stroke-opacity:1"
       id="path144"
       inkscape:connector-curvature="0" /><path
       d="m 402.832,575.355 c 0,0 -72.019,-18.734 -80.312,-30.097"
       style="fill:none;stroke:#231f20;stroke-width:12;stroke-linecap:round;stroke-linejoin:round;stroke-miterlimit:10;stroke-dasharray:none;stroke-opacity:1"
       id="path146"
       inkscape:connector-curvature="0" /><path
       d="m 394.98,504.438 c -10.585,15.574 -32.863,7.871 -32.863,7.871 l -8.504,5.886 42.676,17.102 c 0,0 -1.726,-25.156 3.809,-47.637"
       style="fill:none;stroke:#231f20;stroke-width:12;stroke-linecap:round;stroke-linejoin:round;stroke-miterlimit:10;stroke-dasharray:none;stroke-opacity:1"
       id="path148"
       inkscape:connector-curvature="0" /><path
       d="m 148.289,476.621 0,-195 13.906,-110.019 344.692,0 13.906,110.019 0,195 -372.504,0"
       style="fill:#40b93c;fill-opacity:1;fill-rule:nonzero;stroke:none"
       id="path150"
       inkscape:connector-curvature="0" /><path
       d="m 152.039,280.781 367.504,0 0,54.1602 -367.504,0 0,-54.1602 z"
       style="fill:#2c763f;fill-opacity:1;fill-rule:nonzero;stroke:none"
       id="path152"
       inkscape:connector-curvature="0" /><path
       d="m 152.039,435.039 367.504,0 0,40.4141 -367.504,0 0,-40.4141 z"
       style="fill:#ffffff;fill-opacity:1;fill-rule:nonzero;stroke:none"
       id="path154"
       inkscape:connector-curvature="0" /><path
       d="m 503.77,172.23 -341.309,0 -6.023,77.301 355.386,0 -8.054,-77.301"
       style="fill:#179448;fill-opacity:1;fill-rule:nonzero;stroke:none"
       id="path156"
       inkscape:connector-curvature="0" /><path
       d="m 511.211,237.23 -359.172,0 0,42.301 367.504,0 -8.332,-42.301"
       style="fill:#2c763f;fill-opacity:1;fill-rule:nonzero;stroke:none"
       id="path158"
       inkscape:connector-curvature="0" /><path
       d="m 148.289,476.621 0,-195 13.906,-110.019 344.692,0 13.906,110.019 0,195 -372.504,0 z"
       style="fill:none;stroke:#231f20;stroke-width:12;stroke-linecap:round;stroke-linejoin:round;stroke-miterlimit:10;stroke-dasharray:none;stroke-opacity:1"
       id="path160"
       inkscape:connector-curvature="0" /><path
       d="m 520.793,281.621 -372.504,0"
       style="fill:#40b93c;fill-opacity:1;fill-rule:nonzero;stroke:none"
       id="path162"
       inkscape:connector-curvature="0" /><path
       d="m 520.793,281.621 -372.504,0"
       style="fill:none;stroke:#231f20;stroke-width:10;stroke-linecap:round;stroke-linejoin:round;stroke-miterlimit:10;stroke-dasharray:none;stroke-opacity:1"
       id="path164"
       inkscape:connector-curvature="0" /><path
       d="m 84.3945,277.539 c -5,25.449 -7.7422,64.941 4.5196,77.211 31.8749,31.871 87.7339,46.52 106.2499,50 22.5,4.199 42.656,4.719 52.031,-17.621 7.192,-17.129 10.266,-53.027 -6.406,-77.188 -4.488,-6.5 -54.637,-52.16 -65,-68.32 0,0 -1.309,-30.91 -15.769,-42.832 -18.606,-15.289 -61.7466,8.133 -75.6255,78.75"
       style="fill:#fcd0b4;fill-opacity:1;fill-rule:nonzero;stroke:none"
       id="path166"
       inkscape:connector-curvature="0" /><path
       d="m 84.3945,277.539 c -5,25.449 -7.7422,64.941 4.5196,77.211 31.8749,31.871 87.7339,46.52 106.2499,50 22.5,4.199 42.656,4.719 52.031,-17.621 7.192,-17.129 10.266,-53.027 -6.406,-77.188 -4.488,-6.5 -54.637,-52.16 -65,-68.32 0,0 -1.309,-30.91 -15.769,-42.832 -18.606,-15.289 -61.7466,8.133 -75.6255,78.75 z"
       style="fill:none;stroke:#231f20;stroke-width:14;stroke-linecap:round;stroke-linejoin:round;stroke-miterlimit:10;stroke-dasharray:none;stroke-opacity:1"
       id="path168"
       inkscape:connector-curvature="0" /><path
       d="m 124.563,308.211 c 0,0 75.964,47.789 123.296,59.309"
       style="fill:none;stroke:#231f20;stroke-width:12;stroke-linecap:round;stroke-linejoin:round;stroke-miterlimit:10;stroke-dasharray:none;stroke-opacity:1"
       id="path170"
       inkscape:connector-curvature="0" /><path
       d="m 142.98,276.352 c 0,0 61.258,47.339 106.141,63.589"
       style="fill:none;stroke:#231f20;stroke-width:12;stroke-linecap:round;stroke-linejoin:round;stroke-miterlimit:10;stroke-dasharray:none;stroke-opacity:1"
       id="path172"
       inkscape:connector-curvature="0" /><path
       d="m 113.289,339.121 c 0,0 68.344,41.66 122.5,53.32"
       style="fill:none;stroke:#231f20;stroke-width:12;stroke-linecap:round;stroke-linejoin:round;stroke-miterlimit:10;stroke-dasharray:none;stroke-opacity:1"
       id="path174"
       inkscape:connector-curvature="0" /><path
       d="m 60.8086,231.719 c 0,0 -1.1094,-69.629 76.4184,-86.071"
       style="fill:none;stroke:#231f20;stroke-width:12;stroke-linecap:round;stroke-linejoin:round;stroke-miterlimit:10;stroke-dasharray:none;stroke-opacity:1"
       id="path176"
       inkscape:connector-curvature="0" /></g></svg>