<?xml version="1.0" encoding="UTF-8" standalone="no"?>
<!-- Created with Inkscape (http://www.inkscape.org/) -->

<svg
   xmlns:dc="http://purl.org/dc/elements/1.1/"
   xmlns:cc="http://creativecommons.org/ns#"
   xmlns:rdf="http://www.w3.org/1999/02/22-rdf-syntax-ns#"
   xmlns:svg="http://www.w3.org/2000/svg"
   xmlns="http://www.w3.org/2000/svg"
   xmlns:sodipodi="http://sodipodi.sourceforge.net/DTD/sodipodi-0.dtd"
   xmlns:inkscape="http://www.inkscape.org/namespaces/inkscape"
   id="svg2"
   version="1.1"
   inkscape:version="0.91 r13725"
   xml:space="preserve"
   width="405.1554"
   height="810"
   viewBox="0 0 405.1554 810"
   sodipodi:docname="publicdomainq-senior-man-angry.svg"
   inkscape:export-filename="/media/sdb1/_GRAFIKA/Publicdomainq/lidi/publicdomainq-senior-man-angry.png"
   inkscape:export-xdpi="88.984169"
   inkscape:export-ydpi="88.984169"><title
     id="title7771">Senior man - angry</title><metadata
     id="metadata8"><rdf:RDF><cc:Work
         rdf:about=""><dc:format>image/svg+xml</dc:format><dc:type
           rdf:resource="http://purl.org/dc/dcmitype/StillImage" /><dc:title>Senior man - angry</dc:title><cc:license
           rdf:resource="http://creativecommons.org/publicdomain/zero/1.0/" /><dc:subject><rdf:Bag><rdf:li>man</rdf:li><rdf:li>male</rdf:li><rdf:li>senior</rdf:li><rdf:li>old</rdf:li><rdf:li>angry</rdf:li><rdf:li>rage</rdf:li><rdf:li>anger</rdf:li><rdf:li>elderly</rdf:li><rdf:li>age</rdf:li><rdf:li>publicdomainq.net</rdf:li></rdf:Bag></dc:subject><dc:description>This image was adapted from a picture posted to publicdomainq.net. All of the images on these sites are in the public domain i.e. CC0. This site is only in Japanese but can be easily navigated with Google Translate.</dc:description></cc:Work><cc:License
         rdf:about="http://creativecommons.org/publicdomain/zero/1.0/"><cc:permits
           rdf:resource="http://creativecommons.org/ns#Reproduction" /><cc:permits
           rdf:resource="http://creativecommons.org/ns#Distribution" /><cc:permits
           rdf:resource="http://creativecommons.org/ns#DerivativeWorks" /></cc:License></rdf:RDF></metadata><defs
     id="defs6"><clipPath
       clipPathUnits="userSpaceOnUse"
       id="clipPath58"><path
         d="M 248.324,1461.59 C 126.266,1426.93 127.109,1220.15 127.109,1220.15 128.004,1110.01 139.297,920.891 208.629,851.066 277.488,781.75 343.082,748.82 400.598,733.75 c 0,0 71.066,-21.051 138.136,4.621 56.399,18.891 119.641,56.09 183.711,129.902 70.293,80.997 62.305,300.467 54.805,400.977 -2.207,29.79 -19.727,63.35 -27.156,71.62 -108.156,120.31 -110.422,196.84 -110.422,196.84 l -14.07,-18.1 c -25.891,-27.68 -74.395,-55.98 -164.289,-72.31 0,0 28.632,110.96 53.828,131.22 0,0 -108.278,-147.61 -291.328,-187.67 0,0 4.953,25.09 18.875,58.15 l 5.636,12.59 z"
         id="path60"
         inkscape:connector-curvature="0" /></clipPath><linearGradient
       x1="0"
       y1="0"
       x2="1"
       y2="0"
       gradientUnits="userSpaceOnUse"
       gradientTransform="matrix(-1.44e-5,329.108,329.108,1.44e-5,454.57,998.091)"
       spreadMethod="pad"
       id="linearGradient62"><stop
         style="stop-opacity:1;stop-color:#fcd0b4"
         offset="0"
         id="stop64" /><stop
         style="stop-opacity:1;stop-color:#f7918c"
         offset="1"
         id="stop66" /></linearGradient></defs><sodipodi:namedview
     pagecolor="#ffffff"
     bordercolor="#666666"
     borderopacity="1"
     objecttolerance="10"
     gridtolerance="10"
     guidetolerance="10"
     inkscape:pageopacity="0"
     inkscape:pageshadow="2"
     inkscape:window-width="1920"
     inkscape:window-height="1125"
     id="namedview4"
     showgrid="false"
     inkscape:zoom="0.60792788"
     inkscape:cx="54.12166"
     inkscape:cy="236.04234"
     inkscape:window-x="0"
     inkscape:window-y="0"
     inkscape:window-maximized="1"
     inkscape:current-layer="svg2"
     fit-margin-top="5"
     fit-margin-left="5"
     fit-margin-bottom="5"
     fit-margin-right="5" /><g
     transform="matrix(0.50277642,0,0,-0.50277642,5.0016634,804.94989)"
     id="g7578"><path
       inkscape:connector-curvature="0"
       id="path7580"
       style="fill:#bfb290;fill-opacity:1;fill-rule:nonzero;stroke:none"
       d="M 493.367,660.766 C 538.027,646.43 615.051,620.98 642.156,611.703 673.438,601.02 743.887,580.102 758.895,519.07 777.98,441.328 761.934,263.91 739.941,171.801 732.832,142.02 719.148,100.559 656.926,91.4883 L 638.938,82.6992 637.773,7 154.434,7 152.336,72.1484 134.023,75.2383 C 75.5625,86.0391 54.1211,127.25 44.8438,164.461 19.4336,266.41 7.26563,434.25 26.3398,511.961 c 15,61.008 78.7112,84.227 109.9882,94.918 28.777,9.844 121.36,40.82 165.242,54.883 l 191.797,-0.996" /><path
       inkscape:connector-curvature="0"
       id="path7582"
       style="fill:#e4ddbb;fill-opacity:1;fill-rule:nonzero;stroke:none"
       d="m 131.414,578.551 c 29.34,9.84 123.691,40.82 168.422,54.883 l 195.477,-0.996 c 45.507,-14.336 124.011,-39.786 151.64,-49.067 29.817,-9.992 94.563,-28.949 115.313,-81.312 -0.977,6.07 -2.09,11.781 -3.371,17.011 -15.008,61.032 -85.457,81.95 -116.739,92.633 -27.105,9.277 -104.129,34.727 -148.789,49.063 L 301.57,661.762 C 257.688,647.699 165.105,616.723 136.328,606.879 105.051,596.188 41.3398,572.969 26.3398,511.961 c -1.2812,-5.223 -2.3984,-10.91 -3.4062,-16.902 20.0195,52.543 78.6834,73.492 108.4804,83.492" /><path
       inkscape:connector-curvature="0"
       id="path7584"
       style="fill:#a29776;fill-opacity:1;fill-rule:nonzero;stroke:none"
       d="M 420.273,141.41 C 279.434,77.2383 152.336,72.1484 152.336,72.1484 L 154.434,7 l 483.339,0 3.332,81.9102 c 0,0 -15.839,-3.3321 -80,8.3281 C 496.934,108.898 420.273,141.41 420.273,141.41" /><path
       inkscape:connector-curvature="0"
       id="path7586"
       style="fill:#a29776;fill-opacity:1;fill-rule:nonzero;stroke:none"
       d="m 135.27,348.91 47.5,-35.832 -35.836,-31.668 -11.664,67.5" /><path
       inkscape:connector-curvature="0"
       id="path7588"
       style="fill:#fbc8a6;fill-opacity:1;fill-rule:nonzero;stroke:none"
       d="m 146.926,267.539 4.644,-23.328 4.067,-1.602 c 5.093,-1.589 10.523,-4.097 16.218,-7.871 0,0 57.454,2.043 85.176,6.774 0,0 10.801,2.968 11.153,5.527 4.492,31.902 18.75,63.75 47.5,71.25 0,0 -43.782,25.289 -69.473,22.59 -25.684,-2.707 -77.742,-27.051 -100.039,-70.309 l 0.754,-3.031" /><path
       inkscape:connector-curvature="0"
       id="path7590"
       style="fill:#fbc8a6;fill-opacity:1;fill-rule:nonzero;stroke:none"
       d="m 608.066,245.961 c 7.957,4.117 17.383,10.059 23.211,17.277 0,0 52.661,-13.988 72.563,-0.91 19.898,13.094 -17.422,26.543 -17.422,26.543 0,0 22.203,-1.781 28.648,8.891 8.711,14.418 -28.125,23.898 -28.125,23.898 0,0 26.875,12.36 8.188,22.93 -19.375,10.961 -57.461,27.39 -100.102,18.269 -42.129,-9.07 -82.886,-56.648 -99.214,-77.8 0,0 111.589,-38.039 112.253,-39.098" /><path
       inkscape:connector-curvature="0"
       id="path7592"
       style="fill:#e4ddbb;fill-opacity:1;fill-rule:nonzero;stroke:none"
       d="m 104.617,226.219 c 0,0 12.539,18.031 32.153,18.031 19.609,0 35.085,-9.512 35.085,-9.512 l 93.204,9.172 2.5,-20.621 -108.055,-13.539 c 0,0 -22.734,34.48 -54.887,16.469" /><path
       inkscape:connector-curvature="0"
       id="path7594"
       style="fill:none;stroke:#231f20;stroke-width:14;stroke-linecap:round;stroke-linejoin:round;stroke-miterlimit:10;stroke-dasharray:none;stroke-opacity:1"
       d="M 301.57,661.762 C 257.688,647.699 165.105,616.723 136.328,606.879 105.051,596.188 41.3398,572.969 26.3398,511.961 7.26563,434.25 19.4336,266.41 44.8438,164.461 57.2109,114.84 91.2031,58.1289 205.73,75.8398 318.137,93.25 413.203,135.57 413.203,135.57" /><path
       inkscape:connector-curvature="0"
       id="path7596"
       style="fill:#e4ddbb;fill-opacity:1;fill-rule:nonzero;stroke:none"
       d="m 310.684,313.91 c 0,0 19.375,16.25 44.375,12.5 l 256.875,-82.5 c 0,0 -3.75,-13.75 -14.375,-11.25 -10.625,2.5 -286.875,81.25 -286.875,81.25" /><path
       inkscape:connector-curvature="0"
       id="path7598"
       style="fill:none;stroke:#231f20;stroke-width:14;stroke-linecap:round;stroke-linejoin:round;stroke-miterlimit:10;stroke-dasharray:none;stroke-opacity:1"
       d="M 493.367,660.766 C 538.027,646.43 615.051,620.98 642.156,611.703 673.438,601.02 743.887,580.102 758.895,519.07 777.98,441.328 761.934,263.91 739.941,171.801 730.676,132.98 710.242,74.3281 585.715,93.4102 473.27,110.66 277.559,198.91 277.559,198.91 c 0,0 -11.805,20.91 -9.075,43.641 5.207,43.398 41.145,91.168 86.575,83.859 l 269.504,-86.531" /><path
       inkscape:connector-curvature="0"
       id="path7600"
       style="fill:none;stroke:#231f20;stroke-width:14;stroke-linecap:round;stroke-linejoin:round;stroke-miterlimit:10;stroke-dasharray:none;stroke-opacity:1"
       d="m 315.684,318.289 c 0,0 -32.5,29.371 -69.5,23.84 -25.758,-3.84 -78.391,-27.258 -100.879,-70.891" /><path
       inkscape:connector-curvature="0"
       id="path7602"
       style="fill:none;stroke:#231f20;stroke-width:14;stroke-linecap:round;stroke-linejoin:round;stroke-miterlimit:10;stroke-dasharray:none;stroke-opacity:1"
       d="m 117.77,441.398 32.984,-196.75" /><path
       inkscape:connector-curvature="0"
       id="path7604"
       style="fill:none;stroke:#231f20;stroke-width:14;stroke-linecap:round;stroke-linejoin:round;stroke-miterlimit:10;stroke-dasharray:none;stroke-opacity:1"
       d="M 676.105,453.07 660.891,360.301" /><path
       inkscape:connector-curvature="0"
       id="path7606"
       style="fill:none;stroke:#231f20;stroke-width:14;stroke-linecap:round;stroke-linejoin:round;stroke-miterlimit:10;stroke-dasharray:none;stroke-opacity:1"
       d="m 107.117,230.328 c 0,0 25.91,29.992 64.082,4.75 0,0 66.36,1.332 96.36,8.211" /><path
       inkscape:connector-curvature="0"
       id="path7608"
       style="fill:none;stroke:#231f20;stroke-width:14;stroke-linecap:round;stroke-linejoin:round;stroke-miterlimit:10;stroke-dasharray:none;stroke-opacity:1"
       d="m 608.008,245.672 c 8.008,4.137 17.512,10.098 23.371,17.379 0,0 53.101,-14.121 73.184,-0.942 20.054,13.231 -17.598,26.801 -17.598,26.801 0,0 22.398,-1.801 28.902,8.949 8.789,14.532 -28.355,24.102 -28.355,24.102 0,0 27.09,12.461 8.25,23.141 -19.539,11.039 -57.949,27.617 -100.949,18.398 -43.504,-9.352 -83.805,-57.98 -99.442,-78.441" /><path
       inkscape:connector-curvature="0"
       id="path7610"
       style="fill:none;stroke:#231f20;stroke-width:14;stroke-linecap:round;stroke-linejoin:round;stroke-miterlimit:10;stroke-dasharray:none;stroke-opacity:1"
       d="m 686.965,288.91 c 0,0 -29.895,13.41 -46.172,12.809 -30.371,-1.071 -51.484,-18.391 -51.484,-18.391" /><path
       inkscape:connector-curvature="0"
       id="path7612"
       style="fill:none;stroke:#231f20;stroke-width:14;stroke-linecap:round;stroke-linejoin:round;stroke-miterlimit:10;stroke-dasharray:none;stroke-opacity:1"
       d="m 687.512,321.961 c 0,0 -38.43,12.93 -55.981,13.648 -16.676,0.653 -37.383,-0.55 -63.14,-23.16" /><path
       inkscape:connector-curvature="0"
       id="path7614"
       style="fill:none;stroke:#231f20;stroke-width:14;stroke-linecap:round;stroke-linejoin:round;stroke-miterlimit:10;stroke-dasharray:none;stroke-opacity:1"
       d="M 152.336,72.1484 154.434,7" /><path
       inkscape:connector-curvature="0"
       id="path7616"
       style="fill:none;stroke:#231f20;stroke-width:14;stroke-linecap:round;stroke-linejoin:round;stroke-miterlimit:10;stroke-dasharray:none;stroke-opacity:1"
       d="M 638.938,82.6992 637.773,7" /><path
       inkscape:connector-curvature="0"
       id="path7618"
       style="fill:#e59686;fill-opacity:1;fill-rule:nonzero;stroke:none"
       d="m 418.945,728.852 c 0,-4.922 -13.398,-8.907 -29.918,-8.907 -16.515,0 -29.91,3.985 -29.91,8.907 0,4.914 13.395,8.886 29.91,8.886 16.52,0 29.918,-3.972 29.918,-8.886" /><path
       inkscape:connector-curvature="0"
       id="path7620"
       style="fill:#fee79c;fill-opacity:1;fill-rule:nonzero;stroke:none"
       d="m 454.172,706.703 c 0,0 44.043,-9.441 59.976,-26.816 9.336,-10.203 20.997,-34.024 24.614,-45.625 3.633,-11.602 -5.063,-110.813 -20.278,-130.371 0,0 -6.148,15.437 -14.238,34.488 l -7.891,15.262 -97.363,-149.52 -97.328,149.52 -5.41,-9.411 c -9.297,-21.628 -16.738,-40.339 -16.746,-40.339 -15.207,19.558 -23.899,118.769 -20.285,130.371 3.632,11.601 15.273,35.422 24.629,45.625 15.937,17.375 59.98,26.816 59.98,26.816 l 110.34,0" /><path
       inkscape:connector-curvature="0"
       id="path7622"
       style="fill:#fcd0b4;fill-opacity:1;fill-rule:nonzero;stroke:none"
       d="m 462.98,635.805 -23.125,-19.59 -39.582,-96.664 -42.918,94.586 -28.75,27.078 16.208,33.742 6.933,55.566 89.16,0 22.074,-94.718" /><path
       inkscape:connector-curvature="0"
       id="path7624"
       style="fill:#e59686;fill-opacity:1;fill-rule:nonzero;stroke:none"
       d="m 350.273,698.715 92.5,3.332 6.668,-35 c 0,0 -39.168,-41.66 -103.336,-40 0.848,0.254 -15,10.84 -14.472,9.863 l 18.64,61.805" /><path
       inkscape:connector-curvature="0"
       id="path7626"
       style="fill:none;stroke:#231f20;stroke-width:12;stroke-linecap:round;stroke-linejoin:round;stroke-miterlimit:10;stroke-dasharray:none;stroke-opacity:1"
       d="m 496.355,553.641 -97.363,-149.52 -97.328,149.52" /><path
       inkscape:connector-curvature="0"
       id="path7628"
       style="fill:none;stroke:#231f20;stroke-width:14;stroke-linecap:round;stroke-linejoin:round;stroke-miterlimit:10;stroke-dasharray:none;stroke-opacity:1"
       d="m 343.832,706.703 c 0,0 -44.043,-9.441 -59.98,-26.816 -9.356,-10.203 -20.997,-34.024 -24.629,-45.625 -3.614,-11.602 5.078,-110.813 20.285,-130.371 0,0 39.832,99.941 49.969,105.019" /><path
       inkscape:connector-curvature="0"
       id="path7630"
       style="fill:none;stroke:#231f20;stroke-width:14;stroke-linecap:round;stroke-linejoin:round;stroke-miterlimit:10;stroke-dasharray:none;stroke-opacity:1"
       d="m 454.172,706.703 c 0,0 44.043,-9.441 59.976,-26.816 9.336,-10.203 20.997,-34.024 24.614,-45.625 3.633,-11.602 -5.063,-110.813 -20.278,-130.371 0,0 -39.824,99.941 -49.961,105.019" /><path
       inkscape:connector-curvature="0"
       id="path7632"
       style="fill:none;stroke:#231f20;stroke-width:14;stroke-linecap:round;stroke-linejoin:round;stroke-miterlimit:10;stroke-dasharray:none;stroke-opacity:1"
       d="m 481.555,666.84 c 0,0 -10.137,-34.746 -42.012,-49.238 l -40.551,-107.18 -40.551,107.18 c -31.855,14.492 -42,49.238 -42,49.238" /><path
       inkscape:connector-curvature="0"
       id="path7634"
       style="fill:none;stroke:#231f20;stroke-width:14;stroke-linecap:round;stroke-linejoin:round;stroke-miterlimit:10;stroke-dasharray:none;stroke-opacity:1"
       d="m 331.063,643.531 c 14.359,33.367 13.183,64.696 13.183,64.696" /><path
       inkscape:connector-curvature="0"
       id="path7636"
       style="fill:none;stroke:#231f20;stroke-width:14;stroke-linecap:round;stroke-linejoin:round;stroke-miterlimit:10;stroke-dasharray:none;stroke-opacity:1"
       d="m 445.859,708.227 c 0,0 0.008,-36.141 14.414,-69.512" /><path
       inkscape:connector-curvature="0"
       id="path7638"
       style="fill:#b5b0ae;fill-opacity:1;fill-rule:nonzero;stroke:none"
       d="m 61.6563,1134.98 c 0,0 -27.8907,217.04 6.0585,280.08 43.9652,81.64 133.2302,130.35 231.5862,152.78 138.226,31.52 267.965,19.4 300.711,-56.98 0,0 75.176,-3.65 117.605,-95.8 24.551,-53.32 6.067,-280.08 6.067,-280.08" /><path
       inkscape:connector-curvature="0"
       id="path7640"
       style="fill:#e4e0e1;fill-opacity:1;fill-rule:nonzero;stroke:none"
       d="m 67.7148,1379.51 c 43.9652,81.63 133.2302,130.34 231.5862,152.77 138.226,31.52 267.965,19.4 300.711,-56.98 0,0 75.176,-3.64 117.605,-95.79 8.699,-18.9 11.985,-59.56 12.61,-104.18 0.718,57.4 -1.633,115.9 -12.61,139.73 -42.429,92.15 -117.605,95.8 -117.605,95.8 -32.746,76.38 -162.485,88.5 -300.711,56.98 -98.356,-22.43 -187.621,-71.14 -231.5862,-152.78 -14.4921,-26.91 -17.7031,-81.89 -16.6289,-136.07 0.9024,41.44 5.3282,79.53 16.6289,100.52" /><path
       inkscape:connector-curvature="0"
       id="path7642"
       style="fill:#fcd0b4;fill-opacity:1;fill-rule:nonzero;stroke:none"
       d="m 97.9258,1108.29 c 0,0 -16.4375,35.15 -56.7539,21.77 -46.07424,-15.31 -45.00393,-103.98 -0.1602,-172.244 41.7774,-63.632 74.7893,-66.152 92.0003,-66.152" /><path
       inkscape:connector-curvature="0"
       id="path7644"
       style="fill:none;stroke:#231f20;stroke-width:14;stroke-linecap:round;stroke-linejoin:round;stroke-miterlimit:10;stroke-dasharray:none;stroke-opacity:1"
       d="m 97.9258,1108.29 c 0,0 -16.4375,35.15 -56.7539,21.77 -46.07424,-15.31 -45.00393,-103.98 -0.1602,-172.244 41.7774,-63.632 74.7893,-66.152 92.0003,-66.152" /><path
       inkscape:connector-curvature="0"
       id="path7646"
       style="fill:#e59686;fill-opacity:1;fill-rule:nonzero;stroke:none"
       d="m 39.3945,1019.77 c 10.7852,-31.329 36.1485,-52.286 56.5977,-46.797 20.4768,5.48 28.2928,35.317 17.4218,66.707 -10.781,31.33 -36.1484,52.32 -56.6132,46.8 -20.4297,-5.5 -28.2344,-35.35 -17.4063,-66.71" /><path
       inkscape:connector-curvature="0"
       id="path7648"
       style="fill:none;stroke:#231f20;stroke-width:14;stroke-linecap:round;stroke-linejoin:round;stroke-miterlimit:10;stroke-dasharray:none;stroke-opacity:1"
       d="m 33.7656,1057.38 c 0,0 7.2735,63.05 58.2032,16.98" /><path
       inkscape:connector-curvature="0"
       id="path7650"
       style="fill:#fcd0b4;fill-opacity:1;fill-rule:nonzero;stroke:none"
       d="m 688.02,1108.29 c 0,0 16.421,35.15 56.746,21.77 46.074,-15.31 45.007,-103.98 0.168,-172.244 -41.782,-63.632 -74.789,-66.152 -92.004,-66.152" /><path
       inkscape:connector-curvature="0"
       id="path7652"
       style="fill:none;stroke:#231f20;stroke-width:14;stroke-linecap:round;stroke-linejoin:round;stroke-miterlimit:10;stroke-dasharray:none;stroke-opacity:1"
       d="m 688.02,1108.29 c 0,0 16.421,35.15 56.746,21.77 46.074,-15.31 45.007,-103.98 0.168,-172.244 -41.782,-63.632 -74.789,-66.152 -92.004,-66.152" /><path
       inkscape:connector-curvature="0"
       id="path7654"
       style="fill:#e59686;fill-opacity:1;fill-rule:nonzero;stroke:none"
       d="m 747.156,1020.98 c -10.801,-31.328 -36.148,-52.285 -56.597,-46.796 -20.493,5.48 -28.301,35.316 -17.422,66.716 10.781,31.32 36.148,52.31 56.597,46.79 20.442,-5.5 28.246,-35.35 17.422,-66.71" /><path
       inkscape:connector-curvature="0"
       id="path7656"
       style="fill:none;stroke:#231f20;stroke-width:14;stroke-linecap:round;stroke-linejoin:round;stroke-miterlimit:10;stroke-dasharray:none;stroke-opacity:1"
       d="m 752.18,1057.38 c 0,0 -7.285,63.05 -58.203,16.98" /><path
       inkscape:connector-curvature="0"
       id="path7658"
       style="fill:#fcd0b4;fill-opacity:1;fill-rule:nonzero;stroke:none"
       d="m 393.066,678.871 c -80.836,0 -186.988,68.606 -229.558,116.406 -46.082,51.719 -75.9885,295.243 -75.9885,343.753 0,0 -1.1406,54.17 26.2695,100.22 30.313,50.93 34.274,81.95 42.441,120.04 3.637,16.98 80.024,70.32 126.098,65.48 46.074,-4.85 240.074,-10.92 297.059,30.31 0,0 31.531,-32.73 43.648,-66.69 12.133,-33.95 8.496,-73.96 48.508,-149.14 25.176,-47.3 26.277,-100.22 26.277,-100.22 0,-48.51 -29.922,-292.034 -75.996,-343.753 -42.566,-47.8 -148.726,-116.406 -229.558,-116.406" /><path
       inkscape:connector-curvature="0"
       id="path7660"
       style="fill:none;stroke:#231f20;stroke-width:14;stroke-linecap:round;stroke-linejoin:round;stroke-miterlimit:10;stroke-dasharray:none;stroke-opacity:1"
       d="m 393.066,678.871 c -80.836,0 -186.988,68.606 -229.558,116.406 -46.082,51.719 -75.9885,295.243 -75.9885,343.753 0,0 -1.1406,54.17 26.2695,100.22 30.313,50.93 34.274,81.95 42.441,120.04 3.637,16.98 80.024,70.32 126.098,65.48 46.074,-4.85 240.074,-10.92 297.059,30.31 0,0 31.531,-32.73 43.648,-66.69 12.133,-33.95 8.496,-73.96 48.508,-149.14 25.176,-47.3 26.277,-100.22 26.277,-100.22 0,-48.51 -29.922,-292.034 -75.996,-343.753 -42.566,-47.8 -148.726,-116.406 -229.558,-116.406" /><path
       inkscape:connector-curvature="0"
       id="path7662"
       style="fill:none;stroke:#231f20;stroke-width:14;stroke-linecap:round;stroke-linejoin:round;stroke-miterlimit:10;stroke-dasharray:none;stroke-opacity:1"
       d="m 61.6563,1134.98 c 0,0 -27.8907,217.04 6.0585,280.08 43.9652,81.64 133.2302,130.35 231.5862,152.78 138.226,31.52 267.965,19.4 300.711,-56.98 0,0 75.176,-3.65 117.605,-95.8 24.551,-53.32 6.067,-280.08 6.067,-280.08" /><path
       inkscape:connector-curvature="0"
       id="path7664"
       style="fill:#f57f96;fill-opacity:1;fill-rule:nonzero;stroke:none"
       d="m 593.105,1016.41 c 1.348,-16.59 -88.027,-1.64 -199.722,-3.17 -111.629,-1.58 -203.289,-18.986 -204.582,-2.4 -1.375,16.57 88.988,55.7 200.633,57.24 111.621,1.55 202.343,-35.11 203.671,-51.67" /><path
       inkscape:connector-curvature="0"
       id="path7666"
       style="fill:#e59686;fill-opacity:1;fill-rule:nonzero;stroke:none"
       d="m 351.016,995.934 c 0,0 41.168,-11.321 83.293,2.421 0,0 -12.739,-27.48 -42.137,-27.48 -29.395,0 -35.274,16.172 -41.156,25.059" /><path
       inkscape:connector-curvature="0"
       id="path7668"
       style="fill:none;stroke:#231f20;stroke-width:14;stroke-linecap:round;stroke-linejoin:round;stroke-miterlimit:10;stroke-dasharray:none;stroke-opacity:1"
       d="m 353.867,999.176 c 0,0 36.371,-21.223 75.781,2.424" /><path
       inkscape:connector-curvature="0"
       id="path7670"
       style="fill:none;stroke:#231f20;stroke-width:12;stroke-linecap:round;stroke-linejoin:round;stroke-miterlimit:10;stroke-dasharray:none;stroke-opacity:1"
       d="m 259.141,919.047 c 0,0 -41.786,-42.637 -38.036,-137.637" /><path
       inkscape:connector-curvature="0"
       id="path7672"
       style="fill:none;stroke:#231f20;stroke-width:12;stroke-linecap:round;stroke-linejoin:round;stroke-miterlimit:10;stroke-dasharray:none;stroke-opacity:1"
       d="m 520.566,919.047 c 0,0 41.789,-42.637 38.039,-137.637" /><path
       inkscape:connector-curvature="0"
       id="path7674"
       style="fill:#b5b0ae;fill-opacity:1;fill-rule:nonzero;stroke:none"
       d="m 346.277,1216.58 c 11.047,4.65 11.645,-16.68 -5.156,-34.26 -31.617,-33.11 -105.176,-31.43 -138.457,39.14 -6.59,13.97 -8.992,30.86 -5.391,32.19 3.672,1.44 12.473,-2.01 23.997,-15.63 21.796,-27.51 63.867,-46.93 98.105,-36.34 15.535,4.79 23.027,14.9 26.902,14.9" /><path
       inkscape:connector-curvature="0"
       id="path7676"
       style="fill:none;stroke:#231f20;stroke-width:10;stroke-linecap:round;stroke-linejoin:round;stroke-miterlimit:10;stroke-dasharray:none;stroke-opacity:1"
       d="m 346.277,1216.58 c 11.047,4.65 11.645,-16.68 -5.156,-34.26 -31.617,-33.11 -105.176,-31.43 -138.457,39.14 -6.59,13.97 -8.992,30.86 -5.391,32.19 3.672,1.44 12.473,-2.01 23.997,-15.63 21.796,-27.51 63.867,-46.93 98.105,-36.34 15.535,4.79 23.027,14.9 26.902,14.9 z" /><path
       inkscape:connector-curvature="0"
       id="path7678"
       style="fill:none;stroke:#231f20;stroke-width:16;stroke-linecap:round;stroke-linejoin:round;stroke-miterlimit:10;stroke-dasharray:none;stroke-opacity:1"
       d="m 333.184,1111.83 c -10.211,-28.65 -100.621,-49.86 -123.375,1.62" /><path
       inkscape:connector-curvature="0"
       id="path7680"
       style="fill:none;stroke:#231f20;stroke-width:14;stroke-linecap:round;stroke-linejoin:round;stroke-miterlimit:10;stroke-dasharray:none;stroke-opacity:1"
       d="m 301.695,742.035 c 0,0 26.899,53.125 95.239,53.125 72.5,0 105.078,-48.34 105.078,-48.34" /><path
       inkscape:connector-curvature="0"
       id="path7682"
       style="fill:none;stroke:#231f20;stroke-width:10;stroke-linecap:round;stroke-linejoin:round;stroke-miterlimit:10;stroke-dasharray:none;stroke-opacity:1"
       d="m 328.012,1102.71 c 0,0 0,-28.75 -47.5,-43.75" /><path
       inkscape:connector-curvature="0"
       id="path7684"
       style="fill:#b5b0ae;fill-opacity:1;fill-rule:nonzero;stroke:none"
       d="m 440.09,1216.58 c -11.047,4.65 -11.645,-16.68 5.152,-34.26 31.621,-33.11 105.18,-31.43 138.457,39.14 6.594,13.97 8.996,30.86 5.395,32.19 -3.672,1.44 -12.473,-2.01 -23.996,-15.63 -21.797,-27.51 -63.868,-46.93 -98.106,-36.34 -15.539,4.79 -23.027,14.9 -26.902,14.9" /><path
       inkscape:connector-curvature="0"
       id="path7686"
       style="fill:none;stroke:#231f20;stroke-width:10;stroke-linecap:round;stroke-linejoin:round;stroke-miterlimit:10;stroke-dasharray:none;stroke-opacity:1"
       d="m 440.09,1216.58 c -11.047,4.65 -11.645,-16.68 5.152,-34.26 31.621,-33.11 105.18,-31.43 138.457,39.14 6.594,13.97 8.996,30.86 5.395,32.19 -3.672,1.44 -12.473,-2.01 -23.996,-15.63 -21.797,-27.51 -63.868,-46.93 -98.106,-36.34 -15.539,4.79 -23.027,14.9 -26.902,14.9 z" /><path
       inkscape:connector-curvature="0"
       id="path7688"
       style="fill:none;stroke:#231f20;stroke-width:16;stroke-linecap:round;stroke-linejoin:round;stroke-miterlimit:10;stroke-dasharray:none;stroke-opacity:1"
       d="m 458.184,1113.08 c 10.214,-28.65 100.625,-49.86 123.379,1.62" /><path
       inkscape:connector-curvature="0"
       id="path7690"
       style="fill:none;stroke:#231f20;stroke-width:10;stroke-linecap:round;stroke-linejoin:round;stroke-miterlimit:10;stroke-dasharray:none;stroke-opacity:1"
       d="m 463.359,1103.96 c 0,0 0,-28.75 47.5,-43.75" /></g></svg>