<?xml version="1.0" encoding="utf-8"?>
<svg version="1.1" id="Слой_1" xmlns="http://www.w3.org/2000/svg" x="0px" y="0px"
     viewBox="0 0 199 200.5" style="enable-background:new 0 0 199 200.5;" xml:space="preserve">
<style type="text/css">
	.st0{fill:#FFFFFE;}
	.st1{fill:#C5DAE8;}
	.st2{fill:#F8D2B5;}
	.st3{fill:#76504A;}
	.st4{fill:#BE9685;}
	.st5{fill:#D39985;}
	.st6{fill:#1A1919;}
	.st7{fill:#ED9E99;}
	.st8{fill:#A5B9CC;}
	.st9{fill:#35A0CD;}
	.st10{fill-opacity:0;stroke:#1A1919;stroke-width:1.4;stroke-linecap:round;stroke-linejoin:round;}
	.st11{fill-opacity:0;stroke:#1A1919;stroke-width:1.2;stroke-linecap:round;stroke-linejoin:round;}
	.st12{fill:#D2E0EB;}
	.st13{fill-opacity:0;stroke:#1A1919;stroke-width:1.6;stroke-linecap:round;stroke-linejoin:round;}
	.st14{fill-opacity:0;stroke:#1A1919;stroke-linecap:round;stroke-linejoin:round;}
	.st15{fill:#E07C7D;}
	.st16{fill:#C35953;}
	.st17{fill-opacity:0;stroke:#1A1919;stroke-width:1.3;stroke-linecap:round;stroke-linejoin:round;}
</style>
<g id="Layer_1">
	<path class="st0" d="M130.7,199.2l4.5-30.2l0.5-1.7c0,0,20.8,5.2,31.9,6.2c6.2,0.6,10.1-3.1,12-9.1c2.1-6.8,7.9-31,7.9-31.9
		c0.2-1.8-0.4-2.2-1.7-2.8l-12.1-4.8c-2-0.6-2.6,1.1-2.6,1.1s-4.4,16-6.6,23.9l-0.4,1.7c0,0-22-9.7-31.2-11.9
		c-9.3-2.2-16-3.2-22.4-3.3l-2.3-2l-2.4-1.3l-13.6,0.1l-1.8,1.3l-1.4,1.9c-6.4,0.1-13.1,1.1-22.4,3.3c-9.1,2.2-31.1,11.7-31.1,11.7
		l-1-1.7c-2.2-8-6.6-23.9-6.6-23.9s-0.7-1.7-2.6-1.1L13,129.4c-1.3,0.6-1.9,1-1.7,2.8c0,0.8,7.1,26.8,8.5,32.1
		c1.6,6.1,5.5,9.9,11.7,9.3c9.4-0.9,31.5-6.3,31.5-6.3l0.4,1.7l4.2,30.2"/>
	<path class="st1" d="M134.4,176.1c-4.6,5.8-18.3,11.7-35.8,11.7s-30.8-6.6-33.4-9.9l2.4,21.3l63.3-0.1
		C130.9,199.1,132.6,184.7,134.4,176.1"/>
	<g>
		<path class="st2" d="M105.9,137.3c0-1.9-0.2-6.4-0.2-6.4H92.5c0,0-0.1,4.8-0.1,6.1c0,0,1.6,5.9,7,5.9
			C104.8,142.9,105.9,137.3,105.9,137.3"/>
		<path class="st3" d="M59.3,86.8c-2.1-6-1.7-9.4-1.7-9.4l-1.7,3.2c-7.8-30.2,8.6-35.7,8.6-35.7s-6.5-2-6.3-8.4
			c0,0,8.9,2.1,18.8-3.6c9.1-5.3,22-9,35.1-6.5c11.8,2.3,14.1,10.6,14.1,10.6s11.7,1.7,16.1,14.3c4.8,13.6,0.8,26.7,0.8,26.7
			l-1.2-3.6c0,0-0.3,5.4-3.3,12.5l-1.3,3.6l-76.2,1.7L59.3,86.8"/>
		<path class="st4" d="M59.5,87.3l1.6,4.9l2.3-0.1L59.5,87.3C59.5,87.3,59.5,87.3,59.5,87.3z M142.3,51.4
			c-4.4-12.6-16.1-14.3-16.1-14.3s-2.3-8.4-14.1-10.6C99,24,86.1,27.6,77,32.9c-9.8,5.8-18.8,3.6-18.8,3.6c-0.2,6.4,6.3,8.4,6.3,8.4
			s-16.4,5.5-8.6,35.7l0.3-0.5c-0.1-0.3-0.1-0.6-0.2-0.9C53.7,52.2,68.4,45,68.4,45s1.6-4.9,11.4-10.7c9.1-5.3,21-8,34.2-6
			c12.9,2,12.8,12.6,12.8,12.6s12.3,2.4,16.8,15.1C143.3,54.5,142.8,52.9,142.3,51.4"/>
	</g>
	<path class="st2" d="M68,108.8c-10.6,0.5-15.4-14.2-11.6-19.4c2.7-3.8,8.2-1.4,9.2,0.7"/>
	<path class="st5" d="M65.4,96c1,2.9,2.3,7.1,0.3,7.8c-2,0.7-4.4-1.1-5.4-4c-1-2.9-0.2-5.8,1.7-6.4C64,92.8,64.4,93.2,65.4,96"/>
	<path class="st2" d="M130.5,108.8c10.6,0.5,15.4-14.2,11.6-19.4c-2.7-3.8-8.2-1.4-9.2,0.7"/>
	<path class="st5" d="M92.7,129.1h12.7l0.1,6.4c0,0-6.8,5.7-13.2,2.3l0.2-3.8L92.7,129.1"/>
	<path class="st2" d="M79,56.2c-12.7,3.2-13.3,24.5-13.3,24.5c-0.3,11.4,0.2,30.9,7.1,38.3c6.9,7.4,13.5,11,19.4,12.8
		c0,0,7.3,2.4,14.3,0c5.9-1.8,12.5-5.4,19.4-12.8c7.5-8.1,7.5-30.7,7-41.1c-0.1-3.1-1.8-6.6-2.6-7.5c-10.7-12.8-10.7-20.7-10.7-20.7
		l-1.5,1.8c-2.8,2.8-7.9,5.5-17.2,6.9c0,0,3.3-11.3,6-13.3c0,0-11.7,14.8-30.7,18.3c0,0,0.6-2.6,2.1-5.9L79,56.2"/>
	<path class="st6" d="M89.7,71.9c-0.4,0.3-1.5-0.3-3.1-1.3c-1.6-0.9-3.7-2.1-5.8-1.8c-2.1,0.2-3.9,1.9-4.9,3.2
		c-1.1,1.3-1.5,2.4-2,2.4c-0.3,0-0.5-0.3-0.6-1c-0.1-0.7,0-1.6,0.3-2.7c0.4-1.1,1-2.3,2.1-3.4c1.1-1.1,2.7-2.1,4.7-2.4
		c2-0.3,3.8,0.3,5.1,1.1c1.3,0.8,2.3,1.7,3,2.5C89.8,70.3,90.1,71.6,89.7,71.9"/>
	<path class="st6" d="M108.9,71.9c-0.4-0.3,0-1.6,1.3-3.3c0.7-0.8,1.6-1.8,3-2.5c1.3-0.8,3.1-1.3,5.1-1.1c2,0.2,3.6,1.3,4.7,2.4
		c1.1,1.1,1.8,2.3,2.1,3.4c0.4,1.1,0.4,2,0.3,2.7c-0.1,0.7-0.4,1-0.6,1c-0.5,0-0.9-1.1-2-2.4c-1.1-1.3-2.8-3-4.9-3.2
		c-2.1-0.3-4.2,0.9-5.8,1.8C110.4,71.6,109.3,72.3,108.9,71.9"/>
	<path class="st7" d="M83.2,99.2c0,1.4-3.1,2.5-6.9,2.5c-3.8,0-6.9-1.1-6.9-2.5c0-1.4,3.1-2.5,6.9-2.5
		C80.1,96.7,83.2,97.8,83.2,99.2"/>
	<path class="st7" d="M129.8,99.2c0,1.4-3.1,2.5-6.9,2.5s-6.9-1.1-6.9-2.5c0-1.4,3.1-2.5,6.9-2.5S129.8,97.8,129.8,99.2"/>
	<path class="st5" d="M133.2,96c-1,2.9-2.3,7.1-0.3,7.8c2,0.7,4.4-1.1,5.4-4c1-2.9,0.2-5.8-1.7-6.4C134.5,92.8,134.2,93.2,133.2,96"
		/>
	<path class="st4" d="M93.3,43.4c0,0-11.7,2.8-16.5,19.5l4-0.8C80.8,62.2,84.7,49.5,93.3,43.4"/>
	<path class="st4" d="M109.9,43.7c0,0-5,1-8.4,14.4l3.3-0.5C104.8,57.5,105.9,48.2,109.9,43.7"/>
	<path class="st8" d="M91.3,155.6l5-7.6l6.1-0.5l4.6,7C107,154.5,96.9,150.7,91.3,155.6"/>
	<path class="st9" d="M91.2,199.5l6.6-46.7l-1.5-5.3l2.8-4h0.8l2.5,4l-1.9,5.3l7.1,46.7"/>
	<path class="st1" d="M62.8,164l0.2,3.2l-7.8,2.1C55.1,169.4,61.2,166.4,62.8,164"/>
	<path class="st1" d="M13.1,129.7c0,0-1.5,0.3-1.6,1s-0.2,2.2,0.3,2.6c0.4,0.4,3.5,0.9,3.5,0.9L13.1,129.7"/>
	<path class="st1" d="M24.9,124.5l1.1,4.4c0,0,1.6-0.7,1.6-1.9c0.1-1.2,0.3-2-0.6-2.3C26.1,124.4,24.9,124.5,24.9,124.5"/>
	<path class="st1" d="M185.8,130.2c0,0,1.5,0.3,1.6,1s0.2,2.2-0.3,2.6c-0.4,0.4-3.5,0.9-3.5,0.9L185.8,130.2"/>
	<path class="st1" d="M173.9,125l-1.1,4.4c0,0-1.6-0.7-1.6-1.9c-0.1-1.2-0.3-2,0.6-2.3C172.7,124.8,173.9,125,173.9,125"/>
	<path class="st10" d="M105.8,132c0,0,0.1,3.3,0.3,5c0,0-2.2,4.7-6.8,6.1c-4.6-1.4-7-6.1-7-6.1c0.1-2,0.2-5,0.2-5 M107.6,199.5
		l-7.1-46.7l1.7-4.8 M96.5,148.4l1.3,4.5l-6.6,47"/>
	<path class="st11" d="M99.4,143.7l-8.8,13.1c0,0-2.5-3.4-3.3-11.9c-0.2-2.1,0-5.2,1-8c1-2.7,3.3-3.8,3.9-4 M99.4,143.7l8.8,13.1
		c0,0,2.5-3.4,3.3-11.9c0.2-2.1,0-5.2-1-8c-1-2.7-3.6-3.7-4.3-3.9"/>
	<path class="st0" d="M89.7,86.8c0,4.5-2.8,8.2-6.3,8.2c-3.5,0-6.3-3.7-6.3-8.2s2.8-8.2,6.3-8.2C86.9,78.6,89.7,82.3,89.7,86.8"/>
	<path class="st6" d="M88.7,88c0,3.1-1.7,5.6-3.9,5.6c-2.1,0-3.9-2.5-3.9-5.6s1.7-5.6,3.9-5.6C87,82.4,88.7,84.9,88.7,88"/>
	<path class="st0" d="M88.6,86.1c0,0.6-0.5,1.1-1.1,1.1s-1.2-0.5-1.2-1.1s0.5-1.1,1.2-1.1S88.6,85.5,88.6,86.1"/>
	<path class="st12" d="M84,81.3c1.6,0,3.1,0.3,4.5,0.8c-1.3-1.8-3.1-3-5.1-3c-2.3,0-4.3,1.5-5.6,3.7C79.6,81.9,81.8,81.3,84,81.3"/>
	<path class="st13" d="M89,82c-2.4-5.1-11.9-5.6-12.3,4.5"/>
	<path class="st0" d="M108.7,86.8c0,4.5,2.8,8.2,6.3,8.2s6.3-3.7,6.3-8.2s-2.8-8.2-6.3-8.2S108.7,82.3,108.7,86.8"/>
	<path class="st6" d="M109.6,88c0,3.1,1.7,5.6,3.9,5.6c2.1,0,3.9-2.5,3.9-5.6s-1.7-5.6-3.9-5.6C111.4,82.4,109.6,84.9,109.6,88"/>
	<path class="st0" d="M115.1,86.1c0,0.6,0.5,1.1,1.1,1.1c0.6,0,1.2-0.5,1.2-1.1s-0.5-1.1-1.2-1.1C115.6,85,115.1,85.5,115.1,86.1"/>
	<path class="st12" d="M114.3,81.3c-1.6,0-3.1,0.3-4.5,0.8c1.3-1.8,3.1-3,5.1-3c2.3,0,4.3,1.5,5.6,3.7
		C118.6,81.9,116.5,81.3,114.3,81.3"/>
	<path class="st13" d="M109.4,82c2.4-5.1,11.9-5.6,12.3,4.5"/>
	<path class="st10" d="M121.2,43.5c0,0,2.3,11.5-20.3,14.8c0,0,3.3-11.3,6-13.3c0,0-11.7,14.8-30.7,18.3c0,0,3.3-14.3,14.7-19.5
		 M98.7,97.7c0,0-4.3,1.7-3.8,3.7c0.4,2,1.9,4.3,1.9,4.3 M96.7,89.9c0,0,1.2,5.7,0.9,8.2 M68,108.8c-10.6,0.5-15.4-14.2-11.6-19.4
		c2.7-3.8,8.2-1.4,9.2,0.7 M66,96.7c0,0-3.6-7.3-7.6-3.9 M130.5,108.8c10.6,0.5,15.4-14.2,11.6-19.4c-2.7-3.8-8.2-1.4-9.2,0.7
		 M132.5,96.7c0,0,3.6-7.3,7.6-3.9 M119.6,49.7c0,0,0,7.9,10.7,20.7c0.7,0.9,2.4,4.4,2.6,7.5c0.4,10.4,0.5,33-7,41.1
		c-6.9,7.4-13.5,11-19.4,12.8c-7,2.4-14.3,0-14.3,0c-5.9-1.8-12.5-5.4-19.4-12.8c-6.9-7.4-7.4-27-7.1-38.3c0,0,0.6-21.3,13.3-24.5
		 M58.5,75.6c-1.4,2.8-2.6,5-2.6,5c-7.8-30.2,8.6-35.7,8.6-35.7s-6.5-2-6.3-8.4c0,0,8.9,2.1,18.8-3.6c9.1-5.3,22-9,35.1-6.5
		c11.8,2.3,14.1,10.6,14.1,10.6s11.7,1.7,16.1,14.3c4.8,13.6,0.8,26.7,0.8,26.7s-1.1-3.4-2.4-6.9 M57.6,77.4c0,0-0.4,3.4,1.7,9.4
		 M141.8,74.5c0,0-0.3,5.4-3.3,12.5"/>
	<path class="st6" d="M89.7,71.9c-0.4,0.3-1.5-0.3-3.1-1.3c-1.6-0.9-3.7-2.1-5.8-1.8c-2.1,0.2-3.9,1.9-4.9,3.2
		c-1.1,1.3-1.5,2.4-2,2.4c-0.3,0-0.5-0.3-0.6-1c-0.1-0.7,0-1.6,0.3-2.7c0.4-1.1,1-2.3,2.1-3.4c1.1-1.1,2.7-2.1,4.7-2.4
		c2-0.3,3.8,0.3,5.1,1.1c1.3,0.8,2.3,1.7,3,2.5C89.8,70.3,90.1,71.6,89.7,71.9"/>
	<path class="st6" d="M108.9,71.9c-0.4-0.3,0-1.6,1.3-3.3c0.7-0.8,1.6-1.8,3-2.5c1.3-0.8,3.1-1.3,5.1-1.1c2,0.2,3.6,1.3,4.7,2.4
		c1.1,1.1,1.8,2.3,2.1,3.4c0.4,1.1,0.4,2,0.3,2.7c-0.1,0.7-0.4,1-0.7,1c-0.5,0-0.9-1.1-2-2.4c-1.1-1.3-2.8-3-4.9-3.2
		c-2.1-0.3-4.2,0.9-5.8,1.8C110.4,71.6,109.3,72.3,108.9,71.9"/>
	<g>
		<path class="st11" d="M97.8,152.8c0,0,1.5-0.7,2.7-0.1"/>
		<path class="st10" d="M61.8,158.2l5.8,41"/>
	</g>
	<path class="st2" d="M12,127.5c0,0-3.1-3-6.1-6.5c-2.5-2.8-5.6-7.7-5.1-11.1c0.5-3.5,3-7.3,6.2-7.6c0,0,1.1-2.7,3.3-3.2
		c0,0,0.5-2.6,4-2.9c0,0,1.2-2,3.5-2.2c2.3-0.3,4.9-0.6,6.4,1.9c1.8,3,1.9,8.5,1.9,8.5s2.6-0.9,3.4,1.8c1,3.6,1.2,8.7-1.3,13.1
		c-1.8,3.2-3.3,4.5-3.3,4.5l1.4,5.4c0,0-2.4,2.4-4.9,3.5c-3.3,1.5-6.6,2-6.6,2L12,127.5"/>
	<path class="st5" d="M11.3,118.1c2.9-0.6,5.8-4.1,6.6-4.8c0.8-0.8,1.1-2.7,1.1-2.7l2.7,0.6c0,0-1,2-1.6,2.9
		c-0.7,0.9-0.7,5.8-0.7,5.8S13.7,117.7,11.3,118.1"/>
	<g>
		<path class="st10" d="M25.1,124.6c2-0.6,2.6,1.1,2.6,1.1s0.9,3.1,2,7.2c3.3,6.1,6.4,21.4,6.3,21 M13,129.4c-1.3,0.6-1.9,1-1.7,2.8
			c0,0.3,0.9,4.1,2.2,9.1c0,5.1,5.2,20.2,6.6,24.3c2,6,5.1,8.3,11.3,8c9.9-0.5,31.7-6.3,31.7-6.3 M11.6,133.5c0,0,1,1.6,4.3,1
			c7.1-1.3,12.3-6.2,12-8.1 M26.2,129.3l-1.4-5.7c0,0,1.6-1.2,3.4-4.4c2.5-4.4,2.3-9.5,1.3-13.1c-0.8-2.7-3.4-1.8-3.4-1.8
			s-0.1-5.5-1.9-8.5c-1.5-2.5-4-2.2-6.4-1.9c-2.3,0.3-3.5,2.2-3.5,2.2c-3.6,0.3-4,2.9-4,2.9c-2.2,0.5-3.3,3.2-3.3,3.2
			c-3.3,0.4-5.7,4.1-6.2,7.6c-0.5,3.5,2,7.2,4.3,10.1c2.6,3.4,7.1,7.3,7.1,7.3l2.9,6.9"/>
		<path class="st11" d="M7.2,102.2c0,0,3.8-0.7,4.9,1.2c0.9,1.5,4.9,10.6,3,12.1c-1.9,1.5-4.2,2.7-6,2.6c-1.8-0.1-2.4-0.6-1.4-2
			c1-1.4,2.7-2.7,2.7-2.7s-2.2-2.6-2.4-4.3c0,0-0.8,1.8-2.4,3 M10.3,99c0,0,4.1-0.6,5.4,1.1c2,2.5,2.6,6,2.6,6 M14.3,96.1
			c0,0,4.6-0.8,6.1,1.2c1.4,1.8,2.2,7.5,2.2,7.5 M26.1,104.3c0,0-7.4,0.7-8.4,2.4c-1,1.7-0.5,4.1,7.3,4.4 M18.7,110.4
			c0,0,0.6,4.2-2.9,4.7 M21.7,111.5c0,0-3.7,4.4-2.2,7.9"/>
	</g>
	<path class="st10" d="M35.6,151.3c0,0,21.7-9.4,30.9-11.6c8.9-2.1,15.5-3.1,21.7-3.3"/>
	<path class="st14" d="M13.8,141.6c0,0,2.2,1.5,7.7-0.8c4.9-2.1,7.8-5.7,8-7.9"/>
	<path class="st15" d="M99.1,128.3c-2.4,0-6-1.5-7.9-4.5c-3.7-5.6-5-14.5-5-14.5c2.7,1.4,8.6,2.5,12.8,2.5H99
		c4.3,0,10.2-1.1,12.8-2.5c0,0-1,7.2-4.1,12.6c-2.2,3.8-6,6.4-8.8,6.4H99.1"/>
	<path class="st16" d="M88.2,117.5c2.7-1.7,6.9-2.6,10.4-2.6c3.7,0,7.9,1.1,10.7,3c2.1-4.4,2.7-8.5,2.7-8.5c-2.7,1.4-8.7,2.5-13,2.5
		c-4.3,0-10.3-1.1-13-2.5C86,109.4,86.2,113.3,88.2,117.5"/>
	<path class="st17" d="M86.2,109.4c2.7,1.4,8.6,2.5,12.8,2.5H99c4.3,0,10.2-1.1,12.8-2.5c0,0-2.7,19-12.9,19S86.2,109.4,86.2,109.4z
		"/>
	<g>
		<path class="st14" d="M53.8,161.9c0,0,3.6,3.3,9.2,4.2"/>
		<path class="st10" d="M137.1,158.2l-5.8,41"/>
	</g>
	<path class="st2" d="M186.9,127.5c0,0,3.1-3,6.1-6.5c2.5-2.8,5.6-7.7,5.1-11.1c-0.5-3.5-3-7.3-6.2-7.6c0,0-1.1-2.7-3.3-3.2
		c0,0-0.5-2.6-4-2.9c0,0-1.2-2-3.5-2.2c-2.3-0.3-4.9-0.6-6.4,1.9c-1.8,3-1.9,8.5-1.9,8.5s-2.6-0.9-3.4,1.8c-1,3.6-1.2,8.7,1.3,13.1
		c1.8,3.2,3.3,4.5,3.3,4.5l-1.4,5.4c0,0,2.4,2.4,4.9,3.5c3.3,1.5,6.6,2,6.6,2L186.9,127.5"/>
	<path class="st5" d="M187.6,118.1c-2.9-0.6-5.8-4.1-6.6-4.8c-0.8-0.8-1.1-2.7-1.1-2.7l-2.7,0.6c0,0,1,2,1.6,2.9
		c0.7,0.9,0.7,5.8,0.7,5.8S185.2,117.7,187.6,118.1"/>
	<g>
		<path class="st10" d="M173.8,124.6c-2-0.6-2.6,1.1-2.6,1.1s-0.9,3.1-2,7.2c-2.7,4.6-6.6,21.4-6.4,21 M186,129.4
			c1.3,0.6,1.9,1,1.7,2.8c0,0.3-0.8,3.9-2,8.6c0.3,3.7-4.8,20.2-6.5,24.6c-2.2,5.9-5.1,8.3-11.3,8c-9.9-0.5-32-6.2-32-6.2
			 M187.3,133.5c0,0-1,1.6-4.3,1c-7.1-1.3-12.3-6.2-12-8.1 M172.7,129.3l1.4-5.7c0,0-1.6-1.2-3.4-4.4c-2.5-4.4-2.3-9.5-1.3-13.1
			c0.8-2.7,3.4-1.8,3.4-1.8s0.1-5.5,1.9-8.5c1.5-2.5,4-2.2,6.4-1.9c2.3,0.3,3.5,2.2,3.5,2.2c3.6,0.3,4,2.9,4,2.9
			c2.2,0.5,3.3,3.2,3.3,3.2c3.3,0.4,5.7,4.1,6.2,7.6c0.5,3.5-2,7.2-4.3,10.1c-2.6,3.4-7.1,7.3-7.1,7.3l-2.9,6.9"/>
		<path class="st11" d="M191.7,102.2c0,0-3.8-0.7-4.9,1.2c-0.9,1.5-4.9,10.6-3,12.1c1.9,1.5,4.2,2.7,6,2.6c1.8-0.1,2.4-0.6,1.4-2
			c-1-1.4-2.7-2.7-2.7-2.7s2.2-2.6,2.4-4.3c0,0,0.8,1.8,2.4,3 M188.6,99c0,0-4.1-0.6-5.4,1.1c-2,2.5-2.6,6-2.6,6 M184.6,96.1
			c0,0-4.6-0.8-6.1,1.2c-1.3,1.8-2.2,7.5-2.2,7.5 M172.8,104.3c0,0,7.4,0.7,8.4,2.4c1,1.7,0.5,4.1-7.3,4.4 M180.3,110.4
			c0,0-0.6,4.2,2.9,4.7 M177.2,111.5c0,0,3.7,4.4,2.2,7.9"/>
	</g>
	<path class="st10" d="M163.1,151.4c0,0-21.5-9.5-30.7-11.7c-8.9-2.1-15.5-3.1-21.7-3.3"/>
	<path class="st14" d="M185.8,140.6c0,0-2.9,1.9-8.4,0c-4.3-1.5-7.2-5.3-7.9-7.2 M145.1,161.9c0,0-3.6,3.3-9.2,4.2"/>
</g>
</svg>
