<?xml version="1.0" standalone="no"?>
<!DOCTYPE svg PUBLIC "-//W3C//DTD SVG 20010904//EN"
 "http://www.w3.org/TR/2001/REC-SVG-20010904/DTD/svg10.dtd">
<svg version="1.0" xmlns="http://www.w3.org/2000/svg"
 width="700.000000pt" height="700.000000pt" viewBox="0 0 700.000000 700.000000"
 preserveAspectRatio="xMidYMid meet">
<metadata>
Created by potrace 1.14, written by Peter Selinger 2001-2017
</metadata>
<g transform="translate(0.000000,700.000000) scale(0.100000,-0.100000)"
fill="#000000" stroke="none">
<path d="M3467 6944 c-1 -1 -18 -4 -38 -7 -180 -23 -361 -158 -445 -330 -24
-49 -32 -57 -49 -52 -11 4 -58 8 -105 10 -196 7 -383 -83 -497 -237 -52 -71
-78 -126 -99 -206 l-18 -72 -46 -1 c-219 -4 -394 -95 -513 -269 -55 -79 -104
-226 -101 -300 1 -12 -18 -15 -110 -15 -140 0 -229 -26 -336 -98 -122 -83
-210 -207 -250 -357 -16 -58 -20 -200 -8 -254 5 -22 11 -48 13 -57 12 -56 87
-193 132 -237 7 -7 13 -14 13 -15 0 -1 -28 -2 -63 -1 -249 2 -508 -163 -619
-397 -167 -349 -25 -768 318 -938 49 -25 90 -45 92 -46 1 -2 -8 -36 -22 -76
-81 -246 -28 -507 144 -702 40 -46 128 -114 192 -150 165 -91 398 -108 576
-40 l42 16 58 -45 c133 -104 255 -149 417 -154 223 -6 421 78 561 241 l46 52
121 -69 c67 -37 177 -96 243 -129 l122 -60 15 -92 c11 -69 13 -159 11 -362 -2
-148 -5 -283 -8 -300 -2 -16 -7 -65 -11 -107 -3 -42 -8 -87 -10 -100 -3 -12
-7 -40 -10 -63 -10 -68 -62 -266 -90 -340 -60 -159 -155 -316 -272 -450 l-70
-81 768 0 c690 0 767 2 756 16 -6 8 -24 30 -39 47 -40 47 -93 133 -121 195
-23 51 -61 158 -60 168 1 3 -3 12 -7 20 -4 8 -11 32 -14 52 -3 21 -10 57 -15
80 -9 39 -14 79 -27 203 -2 22 -6 148 -9 280 -3 132 -7 329 -9 437 l-5 197 82
-1 c91 0 129 5 202 29 108 35 218 114 289 207 l35 46 28 -24 c51 -42 130 -86
205 -113 62 -22 91 -26 188 -27 137 -1 180 5 257 38 164 69 273 169 347 317
25 52 46 102 46 112 0 22 1 22 57 -13 151 -96 367 -122 538 -65 200 67 349
209 417 400 77 213 45 431 -88 615 l-32 45 14 62 c20 86 22 185 7 268 -14 76
-55 184 -86 227 l-20 27 35 33 c19 18 55 63 80 100 173 253 143 600 -72 818
-102 103 -265 189 -367 193 -16 0 -16 7 2 81 14 59 15 211 1 269 -57 245 -274
436 -523 463 -35 4 -64 12 -64 18 -1 6 -3 20 -4 31 -13 115 -44 205 -101 290
-185 278 -552 351 -838 168 l-29 -19 -67 67 c-105 104 -252 167 -403 171 l-68
2 -21 43 c-30 61 -113 156 -177 203 -64 47 -178 96 -246 106 -50 7 -163 13
-168 8z"/>
</g>
</svg>
